<?xml version="1.0" encoding="UTF-8"?>
<svg width="50px" height="50px" viewBox="0 0 50 50" version="1.1" xmlns="http://www.w3.org/2000/svg" xmlns:xlink="http://www.w3.org/1999/xlink">
    <title>紧急联系人</title>
    <defs>
        <rect id="path-1" x="0" y="0" width="50" height="50"></rect>
    </defs>
    <g id="页面-1" stroke="none" stroke-width="1" fill="none" fill-rule="evenodd">
        <g id="认证申请-成功" transform="translate(-60.000000, -696.000000)">
            <g id="紧急联系人" transform="translate(60.000000, 696.000000)">
                <mask id="mask-2" fill="white">
                    <use xlink:href="#path-1"></use>
                </mask>
                <g id="路径"></g>
                <path d="M38.0208333,30.3125 C42.9208333,30.3125 46.8708333,34.1625 46.8708333,39.0625 L46.8708333,39.0625 L46.8708333,39.1625 C46.8708333,43.9625 42.9208333,47.9125 38.1208333,47.9125 C33.2308333,47.9125 29.2708333,44.0625 29.2708333,39.1625 C29.2708333,34.2725 33.1208333,30.3125 38.0208333,30.3125 Z M38.1258333,33.4375 C34.9958333,33.4375 32.3958333,35.9375 32.3958333,39.0675 C32.3958333,42.1875 34.8958333,44.7875 38.0258333,44.7875 C41.1458333,44.7875 43.7458333,42.2875 43.7458333,39.1675 C43.7458333,36.0375 41.2458333,33.4375 38.1258333,33.4375 Z" id="分组-1" fill="#0B6DFF" mask="url(#mask-2)"></path>
                <path d="M38.2266667,39.7958333 C38.3366667,39.7958333 38.3366667,39.7958333 38.2266667,39.7958333 L38.2266667,39.7958333 Z M39.7966667,38.2258333 L39.7966667,36.4558333 C39.7966667,35.6258333 39.0666667,34.8958333 38.2266667,34.8958333 C37.3966667,34.8958333 36.6666667,35.6258333 36.6666667,36.4558333 L36.6666667,38.2258333 C36.6666667,39.0658333 37.3966667,39.7958333 38.2266667,39.7958333 C39.1666667,39.7958333 39.8966667,39.0658333 39.7966667,38.2258333 Z" id="路径-3" fill="#0B6DFF" mask="url(#mask-2)"></path>
                <path d="M38.2266667,43.8591667 C39.0866667,43.8591667 39.7966667,43.1491667 39.7966667,42.2891667 C39.7966667,41.4291667 39.0866667,40.7291667 38.2266667,40.7291667 C37.3666667,40.7291667 36.6666667,41.4291667 36.6666667,42.2891667 C36.6666667,43.1491667 37.3666667,43.8591667 38.2266667,43.8591667 Z" id="路径" fill="#0B6DFF" mask="url(#mask-2)"></path>
                <path d="M4.685,45.8341667 C5.525,45.8341667 6.245,45.1041667 6.245,44.2741667 C6.245,40.7341667 7.295,37.3941667 9.375,34.5841667 C14.685,26.6641667 25.525,24.5841667 33.435,30.0041667 C33.545,30.1041667 33.645,30.1041667 33.755,30.2041667 C34.475,30.6241667 35.415,30.2041667 35.835,29.4741667 C36.255,28.7541667 35.835,27.8141667 35.105,27.3941667 C31.665,25.1041667 27.705,23.8541667 23.645,23.8541667 C12.295,23.8541667 3.125,32.9141667 3.125,44.2741667 C3.125,45.1041667 3.855,45.8341667 4.685,45.8341667 Z" id="路径" fill="#0B6DFF" mask="url(#mask-2)"></path>
                <path d="M23.5458333,2.08333335 C30.4158333,2.08333335 35.9358333,7.60333335 35.9358333,14.4833333 C36.0458333,21.3533333 30.4158333,26.8733333 23.5458333,26.9833333 C16.6658333,26.9833333 11.1458333,21.4533333 11.1458333,14.5833333 C11.1458333,7.71333335 16.6658333,2.08333335 23.5458333,2.08333335 Z M23.5408333,5.20833335 C18.4408333,5.20833335 14.2708333,9.37833335 14.2708333,14.4783333 C14.2708333,19.5783333 18.4408333,23.7483333 23.5408333,23.7483333 C28.6408333,23.7483333 32.8108333,19.5883333 32.8108333,14.4783333 C32.9208333,9.37833335 28.7508333,5.20833335 23.5408333,5.20833335 Z" id="分组-2" fill="#0B6DFF" mask="url(#mask-2)"></path>
            </g>
        </g>
    </g>
</svg>