<?xml version="1.0" encoding="UTF-8"?>
<svg width="50px" height="50px" viewBox="0 0 50 50" version="1.1" xmlns="http://www.w3.org/2000/svg" xmlns:xlink="http://www.w3.org/1999/xlink">
    <title>8_7人脸识别</title>
    <defs>
        <rect id="path-1" x="0" y="0" width="50" height="50"></rect>
    </defs>
    <g id="页面-1" stroke="none" stroke-width="1" fill="none" fill-rule="evenodd">
        <g id="认证申请-成功" transform="translate(-60.000000, -546.000000)">
            <g id="8_7人脸识别" transform="translate(60.000000, 546.000000)">
                <mask id="mask-2" fill="white">
                    <use xlink:href="#path-1"></use>
                </mask>
                <g id="路径"></g>
                <path d="M46.6711111,36.1111111 C46.9711111,36.1111111 47.2211111,36.3611111 47.2211111,36.6711111 L47.2211111,36.6711111 L47.2211111,41.6711111 C47.2211111,44.7311111 44.7311111,47.2211111 41.6711111,47.2211111 L41.6711111,47.2211111 L36.6711111,47.2211111 C36.3611111,47.2211111 36.1111111,46.9711111 36.1111111,46.6711111 L36.1111111,46.6711111 L36.1111111,45.0011111 C36.1111111,44.6911111 36.3611111,44.4411111 36.6711111,44.4411111 L36.6711111,44.4411111 L41.6711111,44.4411111 C43.2011111,44.4411111 44.4411111,43.2011111 44.4411111,41.6711111 L44.4411111,41.6711111 L44.4411111,36.6711111 C44.4411111,36.3611111 44.6911111,36.1111111 45.0011111,36.1111111 L45.0011111,36.1111111 Z M4.99777778,36.1111111 C5.30777778,36.1111111 5.55777778,36.3611111 5.55777778,36.6711111 L5.55777778,36.6711111 L5.55777778,41.6711111 C5.55777778,43.2011111 6.79777778,44.4411111 8.33777778,44.4411111 L8.33777778,44.4411111 L13.3377778,44.4411111 C13.6377778,44.4411111 13.8877778,44.6911111 13.8877778,45.0011111 L13.8877778,45.0011111 L13.8877778,46.6711111 C13.8877778,46.9711111 13.6377778,47.2211111 13.3377778,47.2211111 L13.3377778,47.2211111 L8.33777778,47.2211111 C5.26777778,47.2211111 2.77777778,44.7311111 2.77777778,41.6711111 L2.77777778,41.6711111 L2.77777778,36.6711111 C2.77777778,36.3611111 3.02777778,36.1111111 3.33777778,36.1111111 L3.33777778,36.1111111 Z M24.9963372,9.72222222 C28.6963372,9.73222222 31.9263372,12.2122222 32.9063372,15.7722222 C33.8763372,19.3422222 32.3463372,23.1122222 29.1663372,25.0022222 C33.3863372,26.3922222 36.5963372,29.8522222 37.6663372,34.1622222 C38.1263372,35.5822222 37.8763372,37.1422222 36.9963372,38.3522222 C36.1163372,39.5622222 34.7163372,40.2722222 33.2163372,40.2822222 L33.2163372,40.2822222 L16.7763372,40.2822222 C15.2863372,40.2722222 13.8763372,39.5622222 12.9963372,38.3522222 C12.1163372,37.1422222 11.8763372,35.5822222 12.3363372,34.1622222 C13.3963372,29.8422222 16.6163372,26.3822222 20.8363372,25.0022222 C17.6563372,23.1122222 16.1263372,19.3422222 17.0963372,15.7722222 C18.0663372,12.2122222 21.3063372,9.73222222 24.9963372,9.72222222 Z M24.9952128,26.5601852 L21.6952128,27.6501852 C18.3852128,28.7301852 15.8752128,31.4401852 15.0352128,34.8201852 L15.0052128,34.9201852 L14.9752128,35.0101852 C14.7952128,35.5901852 14.8952128,36.2201852 15.2452128,36.7201852 C15.6052128,37.2101852 16.1752128,37.5001852 16.7852128,37.5001852 L33.2152128,37.5001852 C33.8252128,37.5001852 34.3952128,37.2101852 34.7552128,36.7201852 C35.1052128,36.2201852 35.2052128,35.5901852 35.0252128,35.0101852 L34.9952128,34.9201852 L34.9652128,34.8201852 C34.1252128,31.4501852 31.6052128,28.7401852 28.3052128,27.6501852 L24.9952128,26.5601852 Z M24.9994204,12.4999061 C22.5494204,12.4899516 20.3894204,14.1299516 19.7394204,16.4999516 C19.0894204,18.8599516 20.1094204,21.3699516 22.2194204,22.6199516 L24.9994204,24.2499516 L27.7794204,22.6199516 C29.8994204,21.3799516 30.9094204,18.8699516 30.2594204,16.4999516 C29.6094204,14.1299516 27.4594204,12.4899516 24.9994204,12.4999061 Z M41.6711111,2.77777778 C44.7311111,2.77777778 47.2211111,5.26777778 47.2211111,8.33777778 L47.2211111,8.33777778 L47.2211111,13.3377778 C47.2211111,13.6377778 46.9711111,13.8877778 46.6711111,13.8877778 L46.6711111,13.8877778 L45.0011111,13.8877778 C44.6911111,13.8877778 44.4411111,13.6377778 44.4411111,13.3377778 L44.4411111,13.3377778 L44.4411111,8.33777778 C44.4411111,6.79777778 43.2011111,5.55777778 41.6711111,5.55777778 L41.6711111,5.55777778 L36.6711111,5.55777778 C36.3611111,5.55777778 36.1111111,5.30777778 36.1111111,4.99777778 L36.1111111,4.99777778 L36.1111111,3.33777778 C36.1111111,3.02777778 36.3611111,2.77777778 36.6711111,2.77777778 L36.6711111,2.77777778 Z M13.3377778,2.77777778 C13.6377778,2.77777778 13.8877778,3.02777778 13.8877778,3.33777778 L13.8877778,3.33777778 L13.8877778,4.99777778 C13.8877778,5.30777778 13.6377778,5.55777778 13.3377778,5.55777778 L13.3377778,5.55777778 L8.33777778,5.55777778 C6.79777778,5.55777778 5.55777778,6.79777778 5.55777778,8.33777778 L5.55777778,8.33777778 L5.55777778,13.3377778 C5.55777778,13.6377778 5.30777778,13.8877778 4.99777778,13.8877778 L4.99777778,13.8877778 L3.33777778,13.8877778 C3.02777778,13.8877778 2.77777778,13.6377778 2.77777778,13.3377778 L2.77777778,13.3377778 L2.77777778,8.33777778 C2.77777778,5.26777778 5.26777778,2.77777778 8.33777778,2.77777778 L8.33777778,2.77777778 Z" id="分组-1" fill="#0B6DFF" mask="url(#mask-2)"></path>
            </g>
        </g>
    </g>
</svg>