<?xml version="1.0" encoding="UTF-8"?>
<svg width="50px" height="50px" viewBox="0 0 50 50" version="1.1" xmlns="http://www.w3.org/2000/svg" xmlns:xlink="http://www.w3.org/1999/xlink">
    <title>身份证</title>
    <defs>
        <rect id="path-1" x="0" y="0" width="50" height="50"></rect>
    </defs>
    <g id="页面-1" stroke="none" stroke-width="1" fill="none" fill-rule="evenodd">
        <g id="认证申请-成功" transform="translate(-60.000000, -396.000000)">
            <g id="身份证" transform="translate(60.000000, 396.000000)">
                <mask id="mask-2" fill="white">
                    <use xlink:href="#path-1"></use>
                </mask>
                <g id="路径"></g>
                <path d="M42.0427273,5.68181816 C45.1827273,5.68181816 47.7227273,8.22181816 47.7227273,11.3618182 L47.7227273,11.3618182 L47.7227273,38.6318182 C47.7227273,41.7718182 45.1827273,44.3218182 42.0427273,44.3218182 L42.0427273,44.3218182 L7.95272729,44.3218182 C4.81272729,44.3218182 2.27272729,41.7718182 2.27272729,38.6318182 L2.27272729,38.6318182 L2.27272729,11.3618182 C2.27272729,8.22181816 4.81272729,5.68181816 7.95272729,5.68181816 L7.95272729,5.68181816 Z M42.0454545,7.95454546 L7.95545454,7.95454546 C6.07545454,7.95454546 4.54545454,9.48454546 4.54545454,11.3645455 L4.54545454,38.6345455 C4.54545454,40.5145455 6.07545454,42.0445455 7.95545454,42.0445455 L42.0454545,42.0445455 C43.9254545,42.0445455 45.4554545,40.5145455 45.4554545,38.6345455 L45.4554545,11.3645455 C45.4554545,9.48454546 43.9254545,7.95454546 42.0454545,7.95454546 Z M32.95,15.9090909 C36.09,15.9090909 38.64,18.4490909 38.64,21.5890909 C38.64,23.3390909 37.83,24.8790909 36.6,25.9190909 C39.15,27.2490909 40.91,29.8790909 40.91,32.9590909 C40.91,33.5790909 40.4,34.0890909 39.77,34.0890909 C39.15,34.0890909 38.64,33.5790909 38.64,32.9590909 C38.64,29.8190909 36.09,27.2690909 32.95,27.2690909 C29.82,27.2690909 27.27,29.8190909 27.27,32.9590909 C27.27,33.5790909 26.76,34.0890909 26.14,34.0890909 C25.51,34.0890909 25,33.5790909 25,32.9590909 C25,29.8790909 26.76,27.2490909 29.31,25.9190909 C28.08,24.8790909 27.27,23.3390909 27.27,21.5890909 C27.27,18.4490909 29.82,15.9090909 32.95,15.9090909 Z M21.5909091,31.8181818 L21.5909091,34.0881818 L9.09090908,34.0881818 L9.09090908,31.8181818 L21.5909091,31.8181818 Z M21.5909091,23.8636363 L21.5909091,26.1336363 L9.09090908,26.1336363 L9.09090908,23.8636363 L21.5909091,23.8636363 Z M32.9554545,18.1818182 C31.0754545,18.1818182 29.5454545,19.7118182 29.5454545,21.5918182 C29.5454545,23.4718182 31.0754545,25.0018182 32.9554545,25.0018182 C34.8354545,25.0018182 36.3654545,23.4718182 36.3654545,21.5918182 C36.3654545,19.7118182 34.8354545,18.1818182 32.9554545,18.1818182 Z M21.5909091,15.9090909 L21.5909091,18.1790909 L9.09090908,18.1790909 L9.09090908,15.9090909 L21.5909091,15.9090909 Z" id="分组-1" fill="#0B6DFF" mask="url(#mask-2)"></path>
            </g>
        </g>
    </g>
</svg>