<?xml version="1.0" encoding="UTF-8"?>
<svg width="50px" height="50px" viewBox="0 0 50 50" version="1.1" xmlns="http://www.w3.org/2000/svg" xmlns:xlink="http://www.w3.org/1999/xlink">
    <title>银行卡</title>
    <defs>
        <rect id="path-1" x="0" y="0" width="50" height="50"></rect>
    </defs>
    <g id="页面-1" stroke="none" stroke-width="1" fill="none" fill-rule="evenodd">
        <g id="认证申请-成功" transform="translate(-60.000000, -846.000000)">
            <g id="银行卡" transform="translate(60.000000, 846.000000)">
                <mask id="mask-2" fill="white">
                    <use xlink:href="#path-1"></use>
                </mask>
                <g id="路径"></g>
                <path d="M46.135,37.19 L46.135,31.48 L3.805,31.48 L3.805,37.19 C3.805,39.89 5.995,42.08 8.705,42.08 L41.245,42.08 C43.945,42.08 46.135,39.89 46.135,37.19 Z" id="路径" fill="#85B6FF" mask="url(#mask-2)"></path>
                <path d="M41.875,6.915 C45.455,6.915 48.375,9.825 48.375,13.415 L48.375,13.415 L48.375,36.615 C48.375,40.205 45.465,43.115 41.875,43.115 L41.875,43.115 L8.535,43.115 C4.945,43.115 2.035,40.205 2.035,36.615 L2.035,36.615 L2.035,13.415 C2.035,9.825 4.945,6.915 8.535,6.915 L8.535,6.915 Z M45.375,20.205 L5.035,20.205 L5.035,36.615 C5.035,38.545 6.605,40.115 8.535,40.115 L41.875,40.115 C43.805,40.115 45.375,38.545 45.375,36.615 L45.375,20.205 Z M41.875,9.915 L8.535,9.915 C6.605,9.915 5.035,11.485 5.035,13.415 L5.035,17.205 L45.375,17.205 L45.375,13.415 C45.375,11.485 43.805,9.915 41.875,9.915 Z" id="分组-1" fill="#0B6DFF" mask="url(#mask-2)"></path>
                <path d="M20.945,24.94 C20.945,24.11 20.275,23.44 19.445,23.44 L9.645,23.44 C8.815,23.44 8.145,24.11 8.145,24.94 C8.145,25.77 8.815,26.44 9.645,26.44 L19.445,26.44 C20.275,26.44 20.945,25.77 20.945,24.94 Z" id="路径" fill="#0B6DFF" mask="url(#mask-2)"></path>
            </g>
        </g>
    </g>
</svg>