<?xml version="1.0" encoding="UTF-8"?>
<svg width="50px" height="50px" viewBox="0 0 50 50" version="1.1" xmlns="http://www.w3.org/2000/svg" xmlns:xlink="http://www.w3.org/1999/xlink">
    <title>相机</title>
    <defs>
        <rect id="path-1" x="0" y="0" width="50" height="50"></rect>
    </defs>
    <g id="页面-1" stroke="none" stroke-width="1" fill="none" fill-rule="evenodd">
        <g id="认证申请-身份证" transform="translate(-296.000000, -661.000000)">
            <g id="正面" transform="translate(218.000000, 638.000000)">
                <g id="相机" transform="translate(78.000000, 23.000000)">
                    <mask id="mask-2" fill="white">
                        <use xlink:href="#path-1"></use>
                    </mask>
                    <g id="路径"></g>
                    <path d="M30.6233333,11.4583333 L33.3333333,14.1683333 L33.3333333,15.6283333 L38.9733333,15.6283333 L41.6633333,18.2783333 L41.8833333,35.9883333 L39.3033333,38.5383333 L11.0333333,38.5383333 L8.33333335,35.7983333 L8.54333335,18.4283333 L11.3733333,15.6283333 L16.6633333,15.6283333 L16.6633333,14.1583333 L19.3633333,11.4583333 L30.6233333,11.4583333 Z M29.7570833,13.5416667 L20.2170833,13.5416667 L18.7470833,15.0116667 L18.7470833,17.7116667 L12.2370833,17.7116667 L10.6170833,19.3116667 L10.4270833,34.9416667 L11.9070833,36.4616667 L38.4370833,36.4616667 L39.7770833,35.0916667 L39.5870833,19.1516667 L38.1170833,17.7116667 L31.2470833,17.7116667 L31.2470833,15.0316667 L29.7570833,13.5416667 Z M21.3215144,23.4048477 C22.8115144,21.9148477 25.0515144,21.4648477 26.9915144,22.2748477 C28.9415144,23.0748477 30.2115144,24.9748477 30.2115144,27.0848477 C30.2115144,29.9548477 27.8715144,32.2948477 25.0015144,32.2948477 C22.8915144,32.2948477 20.9915144,31.0248477 20.1915144,29.0748477 C19.3815144,27.1348477 19.8315144,24.8948477 21.3215144,23.4048477 Z M25.005,23.9583333 C23.275,23.9583333 21.875,25.3583333 21.875,27.0883333 C21.875,28.8083333 23.275,30.2083333 25.005,30.2083333 C26.725,30.2083333 28.125,28.8083333 28.125,27.0883333 C28.125,25.3583333 26.725,23.9583333 25.005,23.9583333 Z M36.4616667,19.7916667 L36.4616667,21.8716667 L32.2916667,21.8716667 L32.2916667,19.7916667 L36.4616667,19.7916667 Z" id="分组-1" fill="#FFFFFF" mask="url(#mask-2)"></path>
                </g>
            </g>
        </g>
    </g>
</svg>