<?xml version="1.0" encoding="UTF-8"?>
<svg width="206px" height="130px" viewBox="0 0 206 130" version="1.1" xmlns="http://www.w3.org/2000/svg" xmlns:xlink="http://www.w3.org/1999/xlink">
    <title>编组</title>
    <defs>
        <rect id="path-1" x="0" y="0" width="140" height="94.255"></rect>
    </defs>
    <g id="页面-1" stroke="none" stroke-width="1" fill="none" fill-rule="evenodd">
        <g id="认证申请-身份证" transform="translate(-218.000000, -638.000000)">
            <g id="编组" transform="translate(218.000000, 638.000000)">
                <path d="M0,0 L206,0 L206,130 L0,130 L0,0 Z" id="矩形-4" fill="#EDF4FF"></path>
                <path d="M24,10 L10,10 L10,24" id="路径" stroke="#0B6DFF" stroke-width="3" stroke-dasharray="0,0"></path>
                <path d="M24,120 L10,120 L10,106" id="路径" stroke="#0B6DFF" stroke-width="3" stroke-dasharray="0,0"></path>
                <path d="M182,10 L196,10 L196,24" id="路径" stroke="#0B6DFF" stroke-width="3" stroke-dasharray="0,0"></path>
                <path d="M182,120 L196,120 L196,106" id="路径" stroke="#0B6DFF" stroke-width="3" stroke-dasharray="0,0"></path>
                <g id="shenfenzhengrenzheng" transform="translate(33.000000, 17.872500)">
                    <mask id="mask-2" fill="white">
                        <use xlink:href="#path-1"></use>
                    </mask>
                    <g id="路径"></g>
                    <path d="M129.090011,8.01846255e-05 C135.170011,0.0500801846 140.060011,5.01008018 140.030149,11.0900802 L140.030149,11.0900802 L140.030149,83.1600802 C140.060011,89.2400802 135.170011,94.2000802 129.090011,94.2600802 L129.090011,94.2600802 L10.9400114,94.2600802 C4.86001144,94.2000802 -0.0299885554,89.2400802 -0.000125856407,83.1600802 L-0.000125856407,83.1600802 L-0.000125856407,11.0900802 C-0.0299885554,5.01008018 4.86001144,0.0500801846 10.9400114,8.01846255e-05 L10.9400114,8.01846255e-05 Z M38.8758472,15.3023899 C37.8858472,15.3023899 36.9058472,15.3823899 35.9358472,15.5223899 C34.8758472,15.6923899 33.8458472,15.9823899 32.8558472,16.3823899 C31.7758472,16.8323899 30.7658472,17.4223899 29.8458472,18.1323899 C28.8058472,18.9423899 27.9158472,19.9223899 27.2058472,21.0223899 C26.3358472,22.3123899 25.6758472,23.7323899 25.2658472,25.2323899 C24.8658472,26.6623899 24.5658472,28.1123899 24.3458472,29.5823899 C24.1558472,31.1923899 24.0858472,32.8123899 24.1358472,34.4323899 C23.7858472,34.8223899 23.5158472,35.2823899 23.3258472,35.7723899 C23.1158472,36.2523899 22.9858472,36.7723899 22.9558472,37.3023899 C22.9058472,37.9723899 23.0058472,38.6423899 23.2458472,39.2723899 C23.4258472,39.8423899 23.6858472,40.3923899 24.0058472,40.9023899 C24.2158472,41.2323899 24.4758472,41.5323899 24.7758472,41.7923899 C25.0458472,41.9723899 25.3358472,42.1223899 25.6458472,42.2323899 C25.8258472,42.9123899 26.0258472,43.5823899 26.2358472,44.2423899 C26.4358472,44.8023899 26.6658472,45.3523899 26.9358472,45.8823899 C27.1558472,46.3523899 27.4658472,46.7823899 27.8458472,47.1423899 C28.5158472,47.6723899 29.1558472,48.2323899 29.7658472,48.8223899 C30.3858472,49.4523899 30.7458472,50.2823899 30.7958472,51.1623899 C30.8358472,51.8523899 30.8558472,52.4823899 30.8558472,53.0123899 C30.8658472,53.5523899 30.7458472,54.0923899 30.5258472,54.5823899 C30.2758472,55.1323899 29.9258472,55.6323899 29.5058472,56.0723899 C28.8858472,56.6823899 28.2158472,57.2323899 27.4858472,57.7023899 C26.2958472,58.4723899 24.9958472,59.0423899 23.6258472,59.3823899 C22.1958472,59.7423899 20.7858472,60.1823899 19.3958472,60.6823899 C18.1158472,61.1223899 16.9158472,61.7723899 15.8458472,62.6123899 C14.7858472,63.5123899 14.1058472,64.7923899 13.9758472,66.1823899 C13.5858472,68.3923899 13.5158472,70.6523899 13.7458472,72.8823899 C13.7758472,73.9923899 14.1058472,75.0723899 14.7058472,76.0023899 C15.2558472,76.3223899 15.8658472,76.5423899 16.4958472,76.6423899 C17.4558472,76.8623899 18.6358472,77.0823899 20.0258472,77.3023899 C21.4158472,77.5223899 22.9458472,77.7123899 24.6058472,77.9023899 C26.2658472,78.0823899 27.9558472,78.2323899 29.6658472,78.3823899 C31.3158472,78.5323899 32.9658472,78.6523899 34.6158472,78.7523899 C36.2158472,78.8523899 37.6258472,78.9123899 38.8458472,78.9123899 C40.0558472,78.9123899 41.4758472,78.8523899 43.0958472,78.7523899 C44.7758472,78.6523899 46.4558472,78.5323899 48.1258472,78.3823899 C49.8658472,78.2423899 51.5858472,78.0523899 53.2958472,77.8323899 C55.0058472,77.6023899 56.5658472,77.3723899 57.9858472,77.1223899 C59.1858472,76.9223899 60.3758472,76.6523899 61.5458472,76.3123899 C62.1958472,76.1923899 62.7858472,75.8823899 63.2658472,75.4323899 C63.6158472,74.8023899 63.8358472,74.1223899 63.9258472,73.4223899 L63.9158472,73.3723899 C64.0658472,72.4123899 64.1458472,71.4423899 64.1358472,70.4623899 C64.1358472,69.4623899 64.0758472,68.4523899 63.9558472,67.4623899 C63.8558472,66.6123899 63.6958472,65.7623899 63.4758472,64.9323899 C63.1058472,63.8723899 62.4358472,62.9423899 61.5358472,62.2623899 C60.5958472,61.5523899 59.5658472,60.9723899 58.4558472,60.5623899 C57.2858472,60.1023899 56.0858472,59.7223899 54.8658472,59.4023899 C53.6958472,59.1123899 52.5558472,58.7323899 51.4558472,58.2523899 C50.4558472,57.9023899 49.5258472,57.3723899 48.7058472,56.6923899 C48.1058472,56.1823899 47.6158472,55.5423899 47.2758472,54.8323899 C46.9858472,54.2123899 46.8158472,53.5423899 46.7958472,52.8623899 C46.7658472,52.2023899 46.8058472,51.5423899 46.9058472,50.8923899 C46.9858472,50.4623899 47.1258472,50.0323899 47.3158472,49.6323899 C47.4858472,49.3023899 47.6958472,48.9823899 47.9458472,48.7023899 C48.2058472,48.4223899 48.4858472,48.1623899 48.7958472,47.9323899 C49.1558472,47.6423899 49.5158472,47.3423899 49.8658472,47.0423899 C50.2758472,46.7223899 50.5958472,46.3123899 50.8258472,45.8523899 C51.1158472,45.3223899 51.3658472,44.7823899 51.5658472,44.2123899 C51.7558472,43.6223899 51.9658472,42.9523899 52.1558472,42.2023899 C52.5958472,42.1023899 53.0058472,41.8723899 53.3258472,41.5423899 C53.6758472,41.1623899 53.9758472,40.7323899 54.2058472,40.2723899 C54.5358472,39.6023899 54.7358472,38.8723899 54.7958472,38.1223899 C54.8858472,37.5423899 54.8758472,36.9523899 54.7458472,36.3723899 C54.6558472,35.9823899 54.5158472,35.5923899 54.3358472,35.2223899 C54.1758472,34.9123899 53.9558472,34.6423899 53.6858472,34.4123899 C53.7358472,32.7223899 53.6458472,31.0323899 53.3958472,29.3623899 C53.1158472,27.7923899 52.7358472,26.2323899 52.2558472,24.7123899 C51.7658472,23.0723899 50.9558472,21.5423899 49.8858472,20.2123899 C48.6758472,18.8123899 47.2058472,17.6723899 45.5458472,16.8723899 C43.4858472,15.8023899 41.1958472,15.2623899 38.8758472,15.3023899 Z M125.535527,65.9758872 C127.375527,65.9758872 128.865527,67.4658872 128.865527,69.3058872 C128.865527,71.1358872 127.375527,72.6258872 125.535527,72.6258872 L125.535527,72.6258872 L77.4055272,72.6258872 C75.5655272,72.6258872 74.0755272,71.1358872 74.0755272,69.3058872 C74.0755272,67.4658872 75.5655272,65.9758872 77.4055272,65.9758872 L77.4055272,65.9758872 Z M125.535527,43.7990321 C127.375527,43.7990321 128.865527,45.2890321 128.865527,47.1290321 C128.865527,48.9590321 127.375527,50.4490321 125.535527,50.4490321 L125.535527,50.4490321 L77.4055272,50.4490321 C75.5655272,50.4490321 74.0755272,48.9590321 74.0755272,47.1290321 C74.0755272,45.2890321 75.5655272,43.7990321 77.4055272,43.7990321 L77.4055272,43.7990321 Z M125.535527,21.6221772 C127.335527,21.6721772 128.775527,23.1521772 128.775527,24.9521772 C128.775527,26.7521772 127.335527,28.2221772 125.535527,28.2721772 L125.535527,28.2721772 L77.4055272,28.2721772 C75.5655272,28.2721772 74.0755272,26.7821772 74.0755272,24.9521772 C74.0755272,23.1121772 75.5655272,21.6221772 77.4055272,21.6221772 L77.4055272,21.6221772 Z" id="分组-1" fill="#D1E3FF" mask="url(#mask-2)"></path>
                </g>
            </g>
        </g>
    </g>
</svg>