<?xml version="1.0" encoding="UTF-8"?>
<svg width="206px" height="130px" viewBox="0 0 206 130" version="1.1" xmlns="http://www.w3.org/2000/svg" xmlns:xlink="http://www.w3.org/1999/xlink">
    <title>编组 3</title>
    <defs>
        <rect id="path-1" x="0" y="0" width="140" height="94.255"></rect>
    </defs>
    <g id="页面-1" stroke="none" stroke-width="1" fill="none" fill-rule="evenodd">
        <g id="认证申请-身份证" transform="translate(-454.000000, -378.000000)">
            <g id="编组-3" transform="translate(454.000000, 378.000000)">
                <path d="M0,0 L206,0 L206,130 L0,130 L0,0 Z" id="矩形-4" fill="#EDF4FF"></path>
                <path d="M24,120 L10,120 L10,106" id="路径" stroke="#0B6DFF" stroke-width="3" stroke-dasharray="0,0"></path>
                <path d="M182,120 L196,120 L196,106" id="路径" stroke="#0B6DFF" stroke-width="3" stroke-dasharray="0,0"></path>
                <path d="M24,10 L10,10 L10,24" id="路径" stroke="#0B6DFF" stroke-width="3" stroke-dasharray="0,0"></path>
                <path d="M182,10 L196,10 L196,24" id="路径" stroke="#0B6DFF" stroke-width="3" stroke-dasharray="0,0"></path>
                <g id="shenfenzhengrenzheng" transform="translate(33.000000, 17.872500)">
                    <mask id="mask-2" fill="white">
                        <use xlink:href="#path-1"></use>
                    </mask>
                    <g id="路径"></g>
                    <path d="M10.9400114,8.01846255e-05 C4.86001144,0.0500801846 -0.0299885554,5.01008018 -0.000125856406,11.0900802 L-0.000125856406,83.1600802 C-0.0299885554,89.2400802 4.86001144,94.2000802 10.9400114,94.2600802 L129.090011,94.2600802 C135.170011,94.2000802 140.060011,89.2400802 140.030149,83.1600802 L140.030149,11.0900802 C140.060011,5.01008018 135.170011,0.0500801846 129.090011,8.01846255e-05 L10.9400114,8.01846255e-05 Z M121.900011,66.0000802 C125.820011,66.0000802 129.000011,67.5700802 129.000011,69.5000802 C129.000011,71.4300802 125.820011,73.0000802 121.900011,73.0000802 L121.900011,73.0000802 L19.1000114,73.0000802 C15.1800114,73.0000802 12.0000114,71.4300802 12.0000114,69.5000802 C12.0000114,67.5700802 15.1800114,66.0000802 19.1000114,66.0000802 L19.1000114,66.0000802 Z M121.417229,44.0000802 C125.337229,44.0000802 128.517229,45.5700802 128.517229,47.5000802 C128.517229,49.4300802 125.337229,51.0000802 121.417229,51.0000802 L121.417229,51.0000802 L18.6172287,51.0000802 C14.6972287,51.0000802 11.5172287,49.4300802 11.5172287,47.5000802 C11.5172287,45.5700802 14.6972287,44.0000802 18.6172287,44.0000802 L18.6172287,44.0000802 Z M121.140011,22.0000802 C124.960011,22.0500802 128.000011,23.6100802 128.000011,25.5000802 C128.000011,27.3900802 124.960011,28.9500802 121.140011,29.0000802 L121.140011,29.0000802 L19.0500114,29.0000802 C15.1600114,29.0000802 12.0000114,27.4300802 12.0000114,25.5000802 C12.0000114,23.5700802 15.1600114,22.0000802 19.0500114,22.0000802 L19.0500114,22.0000802 Z" id="分组-1" fill="#D1E3FF" mask="url(#mask-2)"></path>
                </g>
            </g>
        </g>
    </g>
</svg>