<?xml version="1.0" encoding="UTF-8"?>
<svg width="120px" height="120px" viewBox="0 0 120 120" version="1.1" xmlns="http://www.w3.org/2000/svg" xmlns:xlink="http://www.w3.org/1999/xlink">
    <title>成功</title>
    <defs>
        <rect id="path-1" x="0" y="0" width="120" height="120"></rect>
    </defs>
    <g id="页面-1" stroke="none" stroke-width="1" fill="none" fill-rule="evenodd">
        <g id="首页-登录后--弹窗" transform="translate(-301.000000, -298.000000)">
            <g id="成功" transform="translate(301.000000, 298.000000)">
                <mask id="mask-2" fill="white">
                    <use xlink:href="#path-1"></use>
                </mask>
                <g id="路径"></g>
                <path d="M46.1678381,25.2900848 C63.1778381,18.2300848 82.8078381,24.1800848 93.0478381,39.4900848 C103.287838,54.8100848 101.277838,75.2100848 88.2578381,88.2300848 C81.0278381,95.4600848 71.2178381,99.5300848 60.9878381,99.5400906 C42.5578381,99.5500848 26.7078381,86.5500848 23.1078381,68.5000848 C19.4978381,50.4300848 29.1678381,32.3400848 46.1678381,25.2900848 Z M60.981824,26.3906039 C47.001824,26.3806128 34.391824,34.7906128 29.041824,47.7106128 C23.681824,60.6206128 26.631824,75.4806128 36.511824,85.3706128 C46.391824,95.2606128 61.261824,98.2106128 74.181824,92.8706128 C87.091824,87.5206128 95.511824,74.9106128 95.511824,60.9406128 C95.491824,41.8706128 80.041824,26.4106128 60.981824,26.3906039 Z" id="分组-1" fill="#FFFFFF" mask="url(#mask-2)"></path>
                <path d="M40.6757813,65.0035938 L54.9057813,79.2235938 L81.3157813,50.7735938 L75.2257813,44.6835938 L54.9057813,67.0335938 L46.7657813,58.8935938 L40.6757813,65.0035938 Z" id="路径" fill="#FFFFFF" mask="url(#mask-2)"></path>
                <path d="M75.1529687,41.7421875 L84.1629687,50.7321875 L54.9529687,82.1521875 L37.7929687,65.0021875 L46.7729687,56.0321875 L54.8229687,64.0621875 L75.1529687,41.7421875 Z M75.296875,47.625 L54.976875,69.975 L46.766875,61.765 L43.546875,65.005 L54.846875,76.285 L78.496875,50.825 L75.296875,47.625 Z" id="分组-2" fill="#FFFFFF" mask="url(#mask-2)"></path>
                <g id="分组-3" mask="url(#mask-2)" fill="#D6EBFF">
                    <g transform="translate(0.009284, 0.014081)" id="路径">
                        <path d="M57.73,115.779669 C42.92,115.189669 28.94,108.749669 18.88,97.8496686 C8.83,86.9596686 3.52,72.5296686 4.12,57.6996686 C4.15,56.5396686 4.26,55.2996686 4.42,53.8096686 L0.38,53.3296686 C0.2,54.9496686 0.1,56.2396686 0.05,57.4996686 C-0.6,73.3896686 5.1,88.8796686 15.88,100.579669 C26.66,112.279669 41.64,119.199669 57.53,119.849669 L57.73,115.779669 Z"></path>
                        <path d="M84.1038412,114.853575 C99.3338412,108.163575 111.093841,95.4635749 116.593841,79.7635749 C122.083841,64.0735749 120.823841,46.8035749 113.083841,32.0835749 L109.493841,33.9735749 C116.693841,47.7035749 117.883841,63.8035749 112.743841,78.4335749 C107.613841,93.0535749 96.6438412,104.903575 82.4438412,111.123575 L84.0338412,114.853575 L84.1038412,114.853575 Z"></path>
                        <path d="M49.5971225,5.01 C64.8171225,2.14 80.5671225,5.72 93.0471225,14.9 L95.4671225,11.63 C82.0671225,1.79 65.1971225,-2.04 48.8571225,1.04 C32.5171225,4.12 18.1971225,13.84 9.30712246,27.89 L12.7171225,30.06 C21.0171225,16.97 34.3571225,7.9 49.5971225,5.01 Z"></path>
                    </g>
                </g>
                <path d="M26.3690662,90.278125 C9.46906623,71.978125 10.6190662,43.438125 28.9290662,26.558125 C29.6290662,25.908125 30.3790662,25.268125 31.3290662,24.508125 L28.7690662,21.328125 C27.7490662,22.148125 26.9190662,22.848125 26.1590662,23.558125 C16.5690662,32.398125 10.8890662,44.688125 10.3590662,57.718125 C9.82906623,70.748125 14.4990662,83.448125 23.3390662,93.038125 L26.3690662,90.278125 Z" id="路径" fill="#D6EBFF" mask="url(#mask-2)"></path>
            </g>
        </g>
    </g>
</svg>