<?xml version="1.0" encoding="UTF-8"?>
<svg width="60px" height="60px" viewBox="0 0 60 60" version="1.1" xmlns="http://www.w3.org/2000/svg" xmlns:xlink="http://www.w3.org/1999/xlink">
    <title>关闭</title>
    <defs>
        <rect id="path-1" x="0" y="0" width="60" height="60"></rect>
    </defs>
    <g id="页面-1" stroke="none" stroke-width="1" fill="none" fill-rule="evenodd">
        <g id="首页-登录后--弹窗" transform="translate(-330.000000, -914.000000)">
            <g id="关闭" transform="translate(330.000000, 914.000000)">
                <mask id="mask-2" fill="white">
                    <use xlink:href="#path-1"></use>
                </mask>
                <g id="路径"></g>
                <path d="M51.1407966,44.2948816 L51.1407966,44.2748816 L51.1407966,44.2948816 Z" id="路径" fill="#FFFFFF" mask="url(#mask-2)"></path>
                <path d="M30.0040501,5.63425992 C43.4340501,5.63425992 54.3640501,16.5642599 54.3640501,30.0042599 C54.3640501,43.4342599 43.4340501,54.3642599 30.0040501,54.3642599 C16.5640501,54.3642599 5.6340501,43.4342599 5.6340501,30.0042599 C5.6340501,16.5642599 16.5640501,5.63425992 30.0040501,5.63425992 Z M30.0009392,9.13126898 C18.4909392,9.13126898 9.13093922,18.491269 9.13093922,30.001269 C9.13093922,41.501269 18.4909392,50.871269 30.0009392,50.871269 C41.5009392,50.871269 50.8709392,41.501269 50.8709392,30.001269 C50.8709392,18.491269 41.5009392,9.13126898 30.0009392,9.13126898 Z" id="分组-1" fill="#FFFFFF" mask="url(#mask-2)"></path>
                <path d="M37.5302815,20.15228 L29.9902815,27.61228 L22.5702815,20.16228 C21.8902815,19.48228 20.7902815,19.48228 20.1102815,20.16228 C19.4302815,20.84228 19.4302815,21.94228 20.1102815,22.62228 L27.5202815,30.05228 L20.0502815,37.45228 C19.3602815,38.12228 19.3602815,39.22228 20.0302815,39.90228 C20.3702815,40.25228 20.8202815,40.42228 21.2702815,40.42228 C21.7102815,40.42228 22.1602815,40.25228 22.4902815,39.92228 L29.9802815,32.52228 L37.5202815,40.09228 C37.8602815,40.43228 38.3002815,40.60228 38.7502815,40.60228 C39.2002815,40.60228 39.6402815,40.43228 39.9802815,40.09228 C40.6602815,39.41228 40.6602815,38.31228 39.9802815,37.63228 L32.4502815,30.07228 L39.9802815,22.63228 C40.6602815,21.95228 40.6602815,20.85228 39.9902815,20.17228 C39.3202815,19.48228 38.2102815,19.48228 37.5302815,20.15228 Z" id="路径" fill="#FFFFFF" mask="url(#mask-2)"></path>
            </g>
        </g>
    </g>
</svg>