<?xml version="1.0" encoding="UTF-8"?>
<svg width="60px" height="60px" viewBox="0 0 60 60" version="1.1" xmlns="http://www.w3.org/2000/svg" xmlns:xlink="http://www.w3.org/1999/xlink">
    <title>倒计时</title>
    <defs>
        <rect id="path-1" x="0" y="0" width="60" height="60"></rect>
    </defs>
    <g id="页面-1" stroke="none" stroke-width="1" fill="none" fill-rule="evenodd">
        <g id="首页-登录后--弹窗" transform="translate(-90.000000, -528.000000)">
            <g id="倒计时" transform="translate(90.000000, 528.000000)">
                <mask id="mask-2" fill="white">
                    <use xlink:href="#path-1"></use>
                </mask>
                <g id="路径"></g>
                <path d="M47.5327682,50.297137 L47.5327682,46.987137 C47.5527682,44.787137 46.8627682,42.637137 45.5727682,40.857137 L41.7627682,35.747137 C38.2427682,31.027137 36.4827682,27.9104703 36.4827682,26.397137 L43.1827682,21.207137 C43.1827682,19.807137 42.2327682,18.667137 41.0827682,18.667137 L28.9927682,18.667137 C27.8327682,18.667137 26.8927682,19.807137 26.8927682,21.207137 L26.8927682,24.517137 C26.8727682,26.717137 27.5527682,28.857137 28.8427682,30.637137 L32.6527682,35.757137 L28.8427682,40.857137 C27.5527682,42.637137 26.8727682,44.787137 26.8927682,46.987137 L26.8927682,50.297137 C26.8927682,51.697137 27.8427682,52.837137 28.9927682,52.837137 L45.4227682,52.837137 C46.5827682,52.837137 47.5327682,51.697137 47.5327682,50.297137 Z" id="路径" fill="#9FD4FF" mask="url(#mask-2)"></path>
                <path d="M44.8735778,3.67339084 C47.0035778,3.67339084 48.7235778,5.39339084 48.7235778,7.52339084 L48.7235778,7.52339084 L48.7235778,12.5433908 C48.7235778,15.9833908 47.4535778,19.2933908 45.1535778,21.8333908 L45.1535778,21.8333908 L38.1735778,29.5933908 L45.1535778,37.3433908 C47.4535778,39.8933908 48.7235778,43.2033908 48.7235778,46.6333908 L48.7235778,46.6333908 L48.7235778,51.6633908 C48.7235778,53.7833908 47.0035778,55.5133908 44.8735778,55.5133908 L44.8735778,55.5133908 L14.7835778,55.5133908 C12.6535778,55.5133908 10.9335778,53.7833908 10.9335778,51.6633908 L10.9335778,51.6633908 L10.9335778,46.6333908 C10.9335778,43.2033908 12.2035778,39.8933908 14.5035778,37.3433908 L14.5035778,37.3433908 L21.4835778,29.5933908 L14.5035778,21.8333908 C12.2035778,19.2933908 10.9335778,15.9833908 10.9335778,12.5433908 L10.9335778,12.5433908 L10.9335778,7.52339084 C10.9335778,5.39339084 12.6535778,3.67339084 14.7835778,3.67339084 L14.7835778,3.67339084 Z M45.0443622,7.35255445 L14.6242832,7.35255445 L14.6242832,12.5525545 C14.6242832,15.0725545 15.5542832,17.5025545 17.2442832,19.3725545 L25.3442832,28.3625545 C25.9742832,29.0625545 25.9742832,30.1325545 25.3442832,30.8325545 L17.2442832,39.8125545 C15.5542832,41.6825545 14.6242832,44.1125545 14.6242832,46.6325545 L14.6242832,51.8325545 L45.0443622,51.8325545 L45.0443622,46.6325545 C45.0443622,44.1125545 44.1142832,41.6825545 42.4242832,39.8125545 L34.3342832,30.8325545 C33.6942832,30.1325545 33.6942832,29.0625545 34.3342832,28.3625545 L42.4342832,19.3725545 C44.1142832,17.5025545 45.0542832,15.0725545 45.0443622,12.5525545 L45.0443622,7.35255445 Z" id="分组-1" fill="#0B6DFF" mask="url(#mask-2)"></path>
                <path d="M37.5502322,42.795292 L22.1102322,42.795292 C20.6802322,42.795292 19.9602322,43.515292 19.9602322,44.945292 L19.9602322,45.335292 C19.9602322,46.765292 20.6802322,47.485292 22.1102322,47.485292 L37.5502322,47.485292 C38.9802322,47.485292 39.7002322,46.765292 39.7002322,45.335292 L39.7002322,44.945292 C39.7002322,43.515292 38.9802322,42.795292 37.5502322,42.795292 Z" id="路径" fill="#0B6DFF" mask="url(#mask-2)"></path>
            </g>
        </g>
    </g>
</svg>