<?xml version="1.0" encoding="UTF-8"?>
<svg width="32px" height="32px" viewBox="0 0 32 32" version="1.1" xmlns="http://www.w3.org/2000/svg" xmlns:xlink="http://www.w3.org/1999/xlink">
    <title>箭头 右</title>
    <defs>
        <rect id="path-1" x="0" y="0" width="32" height="32"></rect>
    </defs>
    <g id="页面-1" stroke="none" stroke-width="1" fill="none" fill-rule="evenodd">
        <g id="我的设置" transform="translate(-30.000000, -78.000000)">
            <g id="箭头-右" transform="translate(30.000000, 78.000000)">
                <mask id="mask-2" fill="white">
                    <use xlink:href="#path-1"></use>
                </mask>
                <g id="路径"></g>
                <path d="M11.91,17.7773071 C11.56,17.4173071 11.38,17.0673071 11.38,16.7073071 C11.38,16.3573071 11.56,15.9973071 11.91,15.6473071 L23.47,5.86730706 C24.18,5.15730706 24.36,4.08730706 23.64,3.37730706 C22.93,2.66730706 21.87,2.48730706 21.16,3.19730706 L9.78,12.9773071 C8.71,13.8673071 8,15.2873071 8,16.7073071 C8,18.1373071 8.53,19.3773071 9.6,20.4473071 L20.98,30.7573071 C21.33,30.9373071 21.87,31.1073071 22.22,31.1073071 C22.76,31.1073071 23.11,30.9373071 23.47,30.5773071 C24.18,29.8673071 24,28.7973071 23.29,28.0873071 L11.91,17.7773071 Z" id="路径" fill="#FFFFFF" mask="url(#mask-2)"></path>
            </g>
        </g>
    </g>
</svg>