<?xml version="1.0" encoding="UTF-8"?>
<svg width="30px" height="30px" viewBox="0 0 30 30" version="1.1" xmlns="http://www.w3.org/2000/svg" xmlns:xlink="http://www.w3.org/1999/xlink">
    <title>警示</title>
    <defs>
        <rect id="path-1" x="0" y="0" width="30" height="30"></rect>
    </defs>
    <g id="页面-1" stroke="none" stroke-width="1" fill="none" fill-rule="evenodd">
        <g id="银行账户详情" transform="translate(-81.000000, -1086.000000)">
            <g id="分组-2" transform="translate(81.000000, 1082.000000)">
                <g id="警示" transform="translate(0.000000, 4.000000)">
                    <mask id="mask-2" fill="white">
                        <use xlink:href="#path-1"></use>
                    </mask>
                    <g id="路径"></g>
                    <path d="M15,0 C23.27,0 30,6.73 30,15 C30,23.27 23.27,30 15,30 C11.92,30 8.97,29.08 6.45,27.32 C6.01,27.02 5.9,26.41 6.2,25.96 C6.51,25.52 7.12,25.41 7.57,25.72 C9.75,27.24 12.32,28.04 15,28.04 C22.19,28.04 28.04,22.19 28.04,15 C28.04,7.81 22.19,1.96 15,1.96 C7.81,1.96 1.96,7.81 1.96,15 C1.96,17.61 2.73,20.14 4.18,22.29 C4.49,22.74 4.37,23.35 3.92,23.65 C3.47,23.95 2.87,23.84 2.56,23.39 C0.89,20.91 0,18.01 0,15 C0,6.73 6.73,0 15,0 Z M15.0036087,20.0955652 C16.0836087,20.0955652 16.9536087,20.9755652 16.9536087,22.0555652 C16.9536087,23.1355652 16.0836087,24.0055652 15.0036087,24.0055652 C13.9236087,24.0055652 13.0436087,23.1355652 13.0436087,22.0555652 C13.0436087,20.9755652 13.9236087,20.0955652 15.0036087,20.0955652 Z M15.0014348,6.31760868 C16.4414348,6.31760868 17.6114348,7.48760868 17.6114348,8.92760868 C17.6114348,9.03760868 17.5914348,9.14760868 17.5714348,9.24760868 L17.5714348,9.24760868 L17.5914348,9.24760868 L16.6014348,17.2376087 C16.4714348,18.0076087 15.8014348,18.5876087 15.0014348,18.5876087 C14.2014348,18.5876087 13.5314348,18.0076087 13.4014348,17.2376087 L13.4014348,17.2376087 L13.3914348,17.2376087 L12.4014348,9.24760868 L12.4214348,9.24760868 C12.4114348,9.14760868 12.3914348,9.03760868 12.3914348,8.92760868 C12.3914348,7.48760868 13.5614348,6.31760868 15.0014348,6.31760868 Z" id="分组-1" fill="#FF0000" mask="url(#mask-2)"></path>
                </g>
            </g>
        </g>
    </g>
</svg>