<?xml version="1.0" encoding="UTF-8"?>
<svg width="36px" height="36px" viewBox="0 0 36 36" version="1.1" xmlns="http://www.w3.org/2000/svg" xmlns:xlink="http://www.w3.org/1999/xlink">
    <title>选择</title>
    <defs>
        <rect id="path-1" x="0" y="0" width="36" height="36"></rect>
    </defs>
    <g id="页面-1" stroke="none" stroke-width="1" fill="none" fill-rule="evenodd">
        <g id="认证申请" transform="translate(-624.000000, -403.000000)">
            <g id="选择" transform="translate(624.000000, 403.000000)">
                <mask id="mask-2" fill="white">
                    <use xlink:href="#path-1"></use>
                </mask>
                <g id="路径"></g>
                <path d="M18,0 C27.94,0 36,8.06 36,18 C36,27.94 27.94,36 18,36 C8.06,36 0,27.94 0,18 C0,8.06 8.06,0 18,0 Z M27.4740001,10.0297143 L15.1240001,22.3797143 L8.52400006,15.7897143 C7.86400006,15.1197143 6.79400006,15.1197143 6.13400006,15.7897143 C5.46400006,16.4497143 5.46400006,17.5197143 6.13400006,18.1797143 L13.9240001,25.9697143 C14.2540001,26.2997143 14.6840001,26.4697143 15.1240001,26.4697143 C15.5540001,26.4697143 15.9840001,26.2997143 16.3140001,25.9697143 L29.8640001,12.4197143 C30.5340001,11.7597143 30.5340001,10.6897143 29.8640001,10.0297143 C29.2040001,9.35971429 28.1340001,9.35971429 27.4740001,10.0297143 Z" id="分组-1" fill="#CCCCCC" mask="url(#mask-2)"></path>
            </g>
        </g>
    </g>
</svg>