<?xml version="1.0" encoding="UTF-8"?>
<svg width="40px" height="40px" viewBox="0 0 40 40" version="1.1" xmlns="http://www.w3.org/2000/svg" xmlns:xlink="http://www.w3.org/1999/xlink">
    <title>guanbi</title>
    <g id="页面-1" stroke="none" stroke-width="1" fill="none" fill-rule="evenodd">
        <g id="登录-1" transform="translate(-548.000000, -892.000000)" fill="#999999" fill-rule="nonzero">
            <g id="guanbi" transform="translate(548.000000, 892.000000)">
                <path d="M19.9994601,18.2106366 L10.1597571,8.37092181 C9.66337096,7.89149542 8.87434027,7.89835189 8.38636059,8.38633216 C7.8983809,8.87431244 7.89152444,9.66334408 8.37095025,10.1597309 L18.2093882,19.9994457 L8.37095025,29.8391605 C8.05118468,30.1587005 7.92618145,30.6245607 8.04302805,31.0612561 C8.15987466,31.4979515 8.50081934,31.8391377 8.93743151,31.9562932 C9.37404369,32.0734486 9.83999159,31.9487746 10.1597571,31.6292346 L19.9994601,21.7882547 L29.8391631,31.6292346 C30.1589287,31.9490006 30.6249971,32.0738834 31.061805,31.956841 C31.4986129,31.8397985 31.8397987,31.4986123 31.956841,31.0618039 C32.0738834,30.6249955 31.9490007,30.1589265 31.6292351,29.8391605 L21.788267,19.9994457 L31.6292351,10.1597309 C32.1232005,9.66541553 32.1229172,8.86425527 31.6286025,8.3702893 C31.1342878,7.87632333 30.3331285,7.87660651 29.8391631,8.37092181 L19.9994601,18.2093716 L19.9994601,18.2106366 Z" id="路径"></path>
            </g>
        </g>
    </g>
</svg>