<?xml version="1.0" encoding="UTF-8"?>
<svg width="40px" height="40px" viewBox="0 0 40 40" version="1.1" xmlns="http://www.w3.org/2000/svg" xmlns:xlink="http://www.w3.org/1999/xlink">
    <title>眼睛</title>
    <defs>
        <rect id="path-1" x="0" y="0" width="40" height="40"></rect>
    </defs>
    <g id="页面-1" stroke="none" stroke-width="1" fill="none" fill-rule="evenodd">
        <g id="登录-1" transform="translate(-600.000000, -892.000000)">
            <g id="眼睛" transform="translate(600.000000, 892.000000)">
                <mask id="mask-2" fill="white">
                    <use xlink:href="#path-1"></use>
                </mask>
                <g id="路径"></g>
                <path d="M20.0032042,7.5 C26.1132042,7.5 31.5632042,11.36 36.3432042,18.89 C36.7732042,19.57 36.7732042,20.43 36.3432042,21.11 C31.5632042,28.64 26.1132042,32.5 20.0032042,32.5 C13.8932042,32.5 8.4332042,28.64 3.6532042,21.11 C3.2232042,20.43 3.2232042,19.57 3.6532042,18.89 C8.4332042,11.36 13.8932042,7.5 20.0032042,7.5 Z M20.0029167,10 C14.9429167,10 10.2529167,13.28 5.93291668,20 C10.2529167,26.72 14.9429167,30 20.0029167,30 C25.0629167,30 29.7429167,26.72 34.0629167,20 C29.7429167,13.28 25.0629167,10 20.0029167,10 Z M20.0045833,14.1666667 C23.2545833,14.1666667 25.8845833,16.7766667 25.8845833,19.9966667 C25.8845833,23.2166667 23.2545833,25.8366667 20.0045833,25.8366667 C16.7445833,25.8366667 14.1145833,23.2166667 14.1145833,19.9966667 C14.1145833,16.7766667 16.7445833,14.1666667 20.0045833,14.1666667 Z M19.9966667,16.6666667 C18.1466667,16.6666667 16.6366667,18.1566667 16.6366667,19.9966667 C16.6366667,21.8366667 18.1466667,23.3366667 19.9966667,23.3366667 C21.8566667,23.3366667 23.3666667,21.8366667 23.3666667,19.9966667 C23.3666667,18.1566667 21.8566667,16.6666667 19.9966667,16.6666667 Z" id="分组-1" fill="#999999" mask="url(#mask-2)"></path>
            </g>
        </g>
    </g>
</svg>