<?xml version="1.0" encoding="UTF-8"?>
<svg width="22px" height="22px" viewBox="0 0 22 22" version="1.1" xmlns="http://www.w3.org/2000/svg" xmlns:xlink="http://www.w3.org/1999/xlink">
    <title>修改</title>
    <defs>
        <rect id="path-1" x="0" y="0" width="22" height="22"></rect>
    </defs>
    <g id="页面-1" stroke="none" stroke-width="1" fill="none" fill-rule="evenodd">
        <g id="个人中心" transform="translate(-456.000000, -339.000000)">
            <g id="修改" transform="translate(456.000000, 339.000000)">
                <mask id="mask-2" fill="white">
                    <use xlink:href="#path-1"></use>
                </mask>
                <g id="路径"></g>
                <path d="M3.92,0.000167682927 C1.76,0.000167682927 0,1.76016768 0,3.93016768 L0,18.0701677 C0,20.2401677 1.76,22.0001677 3.92,22.0001677 L18.05,22.0001677 C20.22,22.0001677 21.98,20.2401677 21.98,18.0701677 L21.98,11.0001677 C21.98,10.5701677 21.63,10.2101677 21.19,10.2101677 C20.76,10.2101677 20.41,10.5701677 20.41,11.0001677 L20.41,18.0701677 C20.41,19.3701677 19.35,20.4301677 18.05,20.4301677 L3.92,20.4301677 C2.62,20.4301677 1.57,19.3701677 1.57,18.0701677 L1.57,3.93016768 C1.57,2.63016768 2.62,1.57016768 3.92,1.57016768 L10.99,1.57016768 C11.42,1.57016768 11.77,1.22016768 11.77,0.790167683 C11.77,0.350167683 11.42,0.000167682927 10.99,0.000167682927 L3.92,0.000167682927 Z" id="路径" stroke="#FFFFFF" fill="#FFFFFF" stroke-dasharray="0,0" mask="url(#mask-2)"></path>
                <path d="M7.94209435,15.193469 L21.7720944,1.33346901 C21.9220944,1.19346901 22.0120944,0.993469008 22.0120944,0.783469008 C22.0120944,0.573469008 21.9220944,0.373469008 21.7720944,0.233469008 C21.6220944,0.0834690079 21.4220944,0.00346900795 21.2220944,0.00346900795 C21.0120944,0.00346900795 20.8120944,0.0834690079 20.6620944,0.233469008 L6.83209435,14.143469 C6.56209435,14.443469 6.56209435,14.893469 6.83209435,15.193469 C7.14209435,15.493469 7.63209435,15.493469 7.94209435,15.193469 Z" id="路径" stroke="#FFFFFF" fill="#FFFFFF" stroke-dasharray="0,0" mask="url(#mask-2)"></path>
            </g>
        </g>
    </g>
</svg>