<?xml version="1.0" encoding="UTF-8"?>
<svg width="52px" height="52px" viewBox="0 0 52 52" version="1.1" xmlns="http://www.w3.org/2000/svg" xmlns:xlink="http://www.w3.org/1999/xlink">
    <title>关于我们</title>
    <defs>
        <rect id="path-1" x="0" y="0" width="52" height="52"></rect>
    </defs>
    <g id="页面-1" stroke="none" stroke-width="1" fill="none" fill-rule="evenodd">
        <g id="个人中心" transform="translate(-60.000000, -698.000000)">
            <g id="关于我们" transform="translate(60.000000, 698.000000)">
                <mask id="mask-2" fill="white">
                    <use xlink:href="#path-1"></use>
                </mask>
                <g id="路径"></g>
                <path d="M26.63,2 C39.68,2 50.25,12.58 50.25,25.63 C50.25,38.67 39.67,49.25 26.63,49.25 C13.58,49.25 3,38.67 3,25.63 C3,12.58 13.58,2 26.63,2 Z M26.8,6 C15.88,6 7,14.88 7,25.8 C7,36.72 15.88,45.6 26.8,45.6 C37.72,45.6 46.6,36.72 46.6,25.8 C46.6,14.88 37.72,6 26.8,6 Z M26.36,21 C27.67,21 28.72,22.06 28.72,23.36 L28.72,23.36 L28.72,35.18 C28.72,36.48 27.67,37.54 26.36,37.54 C25.06,37.54 24,36.48 24,35.18 L24,35.18 L24,23.36 C24,22.06 25.06,21 26.36,21 Z M26.36,14 C27.67,14 28.72,15.06 28.72,16.36 C28.72,17.67 27.67,18.73 26.36,18.73 C25.06,18.73 24,17.67 24,16.36 C24,15.06 25.06,14 26.36,14 Z" id="分组-1" fill="#0B6DFF" mask="url(#mask-2)"></path>
            </g>
        </g>
    </g>
</svg>