<?xml version="1.0" encoding="UTF-8"?>
<svg width="52px" height="52px" viewBox="0 0 52 52" version="1.1" xmlns="http://www.w3.org/2000/svg" xmlns:xlink="http://www.w3.org/1999/xlink">
    <title>设置</title>
    <defs>
        <rect id="path-1" x="0" y="0" width="52" height="52"></rect>
    </defs>
    <g id="页面-1" stroke="none" stroke-width="1" fill="none" fill-rule="evenodd">
        <g id="个人中心" transform="translate(-60.000000, -792.000000)">
            <g id="设置" transform="translate(60.000000, 792.000000)">
                <mask id="mask-2" fill="white">
                    <use xlink:href="#path-1"></use>
                </mask>
                <g id="路径"></g>
                <path d="M28.46,35.05 C29.45,34.88 30.12,33.93 29.93,32.95 C29.77,32.09 29.02,31.47 28.14,31.47 C28.03,31.47 27.92,31.48 27.81,31.5 C27.37,31.57 27.03,31.61 26.73,31.61 C23.38,31.61 20.66,28.92 20.66,25.61 C20.66,22.3 23.38,19.61 26.72,19.61 C30.06,19.61 32.78,22.3 32.78,25.61 C32.78,25.93 32.74,26.27 32.66,26.68 C32.48,27.66 33.14,28.6 34.14,28.78 C34.25,28.8 34.36,28.81 34.47,28.81 C35.36,28.81 36.11,28.19 36.26,27.33 C36.38,26.7 36.44,26.16 36.44,25.61 C36.44,23.05 35.43,20.64 33.59,18.82 C31.75,17 29.31,16 26.72,16 C21.36,16 17,20.31 17,25.61 C17,30.91 21.36,35.22 26.72,35.22 C27.24,35.22 27.79,35.17 28.46,35.05 Z" id="路径" fill="#0B6DFF" mask="url(#mask-2)"></path>
                <path d="M33.13,4 C33.31,4 33.49,4.03 33.66,4.09 C36.52,5.07 39.12,6.56 41.41,8.51 C41.9,8.93 42.09,9.59 41.9,10.2 C41.22,12.42 41.48,14.75 42.65,16.75 C43.82,18.75 45.73,20.14 48.02,20.66 C48.65,20.8 49.13,21.3 49.25,21.92 C49.54,23.41 49.68,24.9 49.68,26.35 C49.68,27.79 49.54,29.28 49.25,30.76 C49.13,31.39 48.64,31.88 48.02,32.03 C45.72,32.55 43.82,33.94 42.65,35.94 C41.48,37.94 41.21,40.26 41.9,42.49 C42.09,43.1 41.89,43.76 41.41,44.17 C39.12,46.13 36.52,47.61 33.67,48.6 C33.49,48.66 33.31,48.68 33.13,48.68 C32.68,48.68 32.24,48.5 31.94,48.17 C30.34,46.47 28.17,45.54 25.84,45.54 C23.5,45.54 21.34,46.47 19.73,48.17 C19.31,48.62 18.64,48.81 18.01,48.59 C15.16,47.61 12.56,46.12 10.27,44.17 C9.78,43.74 9.59,43.09 9.78,42.49 C10.47,40.26 10.2,37.94 9.03,35.93 C7.86,33.93 5.96,32.54 3.66,32.02 C3.03,31.88 2.55,31.38 2.43,30.76 C2.14,29.27 2,27.79 2,26.34 C2,24.9 2.14,23.41 2.43,21.92 C2.55,21.3 3.03,20.81 3.66,20.66 C5.96,20.13 7.87,18.74 9.03,16.74 C10.2,14.74 10.47,12.42 9.78,10.19 C9.59,9.59 9.78,8.93 10.27,8.52 C12.54,6.57 15.14,5.08 18.01,4.09 C18.62,3.88 19.31,4.05 19.74,4.51 C21.34,6.21 23.51,7.15 25.84,7.15 C28.18,7.15 30.34,6.21 31.94,4.51 C32.24,4.19 32.68,4 33.13,4 Z M33.4653049,7.67530347 C31.3653049,9.52530347 28.6653049,10.5353035 25.8453049,10.5353035 C23.0253049,10.5353035 20.3353049,9.52530347 18.2253049,7.67530347 C16.4553049,8.37530347 14.8053049,9.32530347 13.3153049,10.4753035 C13.8753049,13.2053035 13.4153049,16.0253035 12.0053049,18.4353035 C10.5953049,20.8553035 8.35530492,22.6553035 5.68530492,23.5353035 C5.54530492,24.4753035 5.47530492,25.4253035 5.47530492,26.3453035 C5.47530492,27.2653035 5.54530492,28.2053035 5.68530492,29.1453035 C8.36530492,30.0353035 10.6053049,31.8353035 12.0053049,34.2453035 C13.4253049,36.6653035 13.8853049,39.4853035 13.3153049,42.2053035 C14.8053049,43.3653035 16.4553049,44.3053035 18.2253049,45.0053035 C20.3453049,43.1653035 23.0353049,42.1553035 25.8453049,42.1553035 C28.6653049,42.1553035 31.3653049,43.1653035 33.4653049,45.0053035 C35.2353049,44.3053035 36.8853049,43.3653035 38.3753049,42.2053035 C37.8153049,39.4653035 38.2753049,36.6553035 39.6853049,34.2453035 C41.0853049,31.8353035 43.3253049,30.0353035 46.0053049,29.1453035 C46.1453049,28.1753035 46.2153049,27.2353035 46.2053049,26.3553035 C46.2053049,25.4253035 46.1353049,24.4853035 46.0053049,23.5453035 C43.3153049,22.6553035 41.0753049,20.8453035 39.6753049,18.4453035 C38.2653049,16.0253035 37.8153049,13.2153035 38.3753049,10.4853035 C36.8853049,9.32530347 35.2353049,8.38530347 33.4653049,7.67530347 Z" id="分组-1" fill="#0B6DFF" mask="url(#mask-2)"></path>
            </g>
        </g>
    </g>
</svg>