<?xml version="1.0" encoding="UTF-8"?>
<svg width="52px" height="52px" viewBox="0 0 52 52" version="1.1" xmlns="http://www.w3.org/2000/svg" xmlns:xlink="http://www.w3.org/1999/xlink">
    <title>contact</title>
    <defs>
        <rect id="path-1" x="0" y="0" width="52" height="52"></rect>
    </defs>
    <g id="页面-1" stroke="none" stroke-width="1" fill="none" fill-rule="evenodd">
        <g id="个人中心" transform="translate(-60.000000, -888.000000)">
            <g id="contact" transform="translate(60.000000, 888.000000)">
                <mask id="mask-2" fill="white">
                    <use xlink:href="#path-1"></use>
                </mask>
                <g id="路径"></g>
                <path d="M26.003448,3.26015625 C26.843448,3.26015625 27.693448,3.31015625 28.543448,3.40015625 C39.193448,4.57015625 47.853448,13.5101563 48.663448,24.2101563 C49.003448,28.5901563 48.093448,32.9101563 46.043448,36.7101563 L46.043448,36.7101563 L47.373448,39.0101563 C48.523448,41.0101563 48.523448,43.4901563 47.373448,45.4801563 C46.223448,47.4901563 44.073448,48.7201563 41.763448,48.7201563 L41.763448,48.7201563 L27.243448,48.7201563 C27.103448,48.7201563 26.973448,48.7201563 26.833448,48.7101563 C26.563448,48.7201563 26.283448,48.7201563 26.003448,48.7201563 C24.473448,48.7201563 22.913448,48.5601563 21.373448,48.2201563 C11.933448,46.1701563 4.73344797,38.4901563 3.48344797,29.1101563 C2.60344797,22.5501563 4.57344797,15.9701563 8.88344797,11.0301563 C13.203448,6.09015625 19.443448,3.26015625 26.003448,3.26015625 Z M26.0023424,6.81205494 C14.5423424,6.82205494 5.42234235,16.8820549 7.00234235,28.6520549 C8.07234235,36.6120549 14.3023424,43.0520549 22.1523424,44.7520549 C23.4423424,45.0320549 24.7223424,45.1720549 26.0123424,45.1720549 C26.4723424,45.1720549 26.9323424,45.1520549 27.3923424,45.1220549 L27.3623424,45.1720549 L43.1623424,45.1720549 C44.3023424,45.1720549 45.0223424,43.9320549 44.4423424,42.9420549 L42.9223424,40.3120549 C42.0323424,38.7620549 41.9223424,36.8320549 42.7923424,35.2620549 C44.5523424,32.1020549 45.4223424,28.4120549 45.1223424,24.4820549 C44.4323424,15.4220549 37.1823424,7.92205494 28.1623424,6.93205494 C27.4323424,6.85205494 26.7123424,6.81205494 26.0023424,6.81205494 Z" id="分组-1" fill="#0B6DFF" mask="url(#mask-2)"></path>
                <path d="M15.5546094,28.210625 C16.3446094,28.660625 17.3146094,28.660625 18.1046094,28.210625 C18.8946094,27.750625 19.3846094,26.910625 19.3846094,25.990625 C19.3846094,24.580625 18.2346094,23.440625 16.8246094,23.440625 C15.4146094,23.440625 14.2746094,24.580625 14.2746094,25.990625 C14.2746094,26.910625 14.7646094,27.750625 15.5546094,28.210625 Z" id="路径" fill="#0B6DFF" mask="url(#mask-2)"></path>
                <path d="M24.7257031,28.210625 C25.5157031,28.660625 26.4857031,28.660625 27.2757031,28.210625 C28.0657031,27.750625 28.5557031,26.910625 28.5557031,25.990625 C28.5557031,24.580625 27.4057031,23.440625 25.9957031,23.440625 C24.5857031,23.440625 23.4457031,24.580625 23.4457031,25.990625 C23.4457031,26.910625 23.9357031,27.750625 24.7257031,28.210625 Z" id="路径" fill="#0B6DFF" mask="url(#mask-2)"></path>
                <path d="M35.1667969,28.550625 C36.5767969,28.550625 37.7267969,27.400625 37.7267969,25.990625 C37.7267969,24.580625 36.5767969,23.440625 35.1667969,23.440625 C33.7567969,23.440625 32.6167969,24.580625 32.6167969,25.990625 C32.6167969,27.400625 33.7567969,28.550625 35.1667969,28.550625 Z" id="路径" fill="#0B6DFF" mask="url(#mask-2)"></path>
            </g>
        </g>
    </g>
</svg>