<?xml version="1.0" encoding="UTF-8"?>
<svg width="52px" height="52px" viewBox="0 0 52 52" version="1.1" xmlns="http://www.w3.org/2000/svg" xmlns:xlink="http://www.w3.org/1999/xlink">
    <title>验证 验证码</title>
    <defs>
        <rect id="path-1" x="0" y="0" width="52" height="52"></rect>
    </defs>
    <g id="页面-1" stroke="none" stroke-width="1" fill="none" fill-rule="evenodd">
        <g id="个人中心" transform="translate(-60.000000, -608.000000)">
            <g id="验证-验证码" transform="translate(60.000000, 608.000000)">
                <mask id="mask-2" fill="white">
                    <use xlink:href="#path-1"></use>
                </mask>
                <g id="路径"></g>
                <path d="M26,2 C26.31,2 26.59,2.09 26.84,2.27 C34.95,8.16 46.62,9.37 46.73,9.38 C47.46,9.45 48.01,10.05 48.0001342,10.78 C48.0001342,10.7901538 48.0001057,10.8072284 47.9999746,10.8310384 L47.9992,10.9224894 C47.9866933,12.0539053 47.81,19.2786154 45.37,27.34 C43.83,32.44 41.69,36.79 39.03,40.28 C35.65,44.73 31.41,47.78 26.43,49.38 C26.3,49.42 26.15,49.45 26,49.45 C25.86,49.45 25.71,49.42 25.57,49.38 C20.6,47.78 16.36,44.72 12.98,40.28 C10.31,36.78 8.18,32.43 6.63,27.34 C4.19,19.2786154 4.01342485,12.0539053 4.00093276,10.9224894 L4,10.78 C4,10.05 4.55,9.44 5.28,9.38 C5.39,9.37 17.11,8.13 25.17,2.27 C25.42,2.09 25.71,2 26,2 Z M25.9924255,6.22356409 L25.9524255,6.25356409 C19.3924255,10.6735641 11.2624255,12.2335641 8.07242547,12.7035641 L8.00242547,12.7135641 L8.00242547,12.7835641 C8.11242547,14.9235641 8.55242547,20.5235641 10.3524255,26.4335641 C13.3724255,36.3635641 18.6324255,42.6835641 25.9724255,45.2135641 L26.0024255,45.2235641 L26.0324255,45.2135641 C33.3924255,42.6735641 38.6624255,36.3335641 41.6724255,26.3735641 C43.3924255,20.6835641 43.8624255,15.4235641 44.0024255,12.7935641 L44.0024255,12.7135641 L43.9324255,12.7035641 C40.7424255,12.2335641 32.6024255,10.6735641 26.0424255,6.25356409 L25.9924255,6.22356409 Z M32.3423601,17.8562365 C32.8223601,17.2262365 33.7223601,17.1062365 34.3623601,17.5962365 C34.6623601,17.8262365 34.8623601,18.1662365 34.9123601,18.5462365 C34.9723601,18.9262365 34.8723601,19.3062365 34.6423601,19.6162365 L34.6423601,19.6162365 L25.1823601,32.0162365 C24.9423601,32.3262365 24.5823601,32.5362365 24.1923601,32.5762365 L24.1923601,32.5762365 L24.0523601,32.5762365 C23.7023601,32.5762365 23.3523601,32.4462365 23.1023601,32.2362365 L23.1023601,32.2362365 L17.5923601,27.5262365 C16.9923601,27.0162365 16.9223601,26.1062365 17.4323601,25.5062365 C17.7123601,25.1762365 18.1123601,24.9962365 18.5323601,24.9962365 C18.8723601,24.9962365 19.2023601,25.1162365 19.4623601,25.3362365 L19.4623601,25.3362365 L23.8123601,29.0562365 Z" id="分组-1" fill="#0B6DFF" mask="url(#mask-2)"></path>
            </g>
        </g>
    </g>
</svg>