<?xml version="1.0" encoding="UTF-8"?>
<svg width="58px" height="58px" viewBox="0 0 58 58" version="1.1" xmlns="http://www.w3.org/2000/svg" xmlns:xlink="http://www.w3.org/1999/xlink">
    <title>ACCOUNT</title>
    <defs>
        <rect id="path-1" x="0" y="0" width="58" height="58"></rect>
    </defs>
    <g id="页面-1" stroke="none" stroke-width="1" fill="none" fill-rule="evenodd">
        <g id="个人中心" transform="translate(-601.000000, -1185.000000)">
            <g id="ACCOUNT" transform="translate(601.000000, 1185.000000)">
                <mask id="mask-2" fill="white">
                    <use xlink:href="#path-1"></use>
                </mask>
                <g id="路径"></g>
                <path d="M40.54,41.5415385 C46.91,41.5415385 52.08,36.3715385 52.08,30.0015385 C52.08,23.6315385 46.91,18.4615385 40.54,18.4615385 C34.17,18.4615385 29,23.6315385 29,30.0015385 C29,36.3715385 34.17,41.5415385 40.54,41.5415385 Z" id="路径" fill="#0B6DFF" opacity="0.2" mask="url(#mask-2)"></path>
                <path d="M28.99,4.99825534 C34.75,4.99825534 39.89,8.57825534 41.9,13.9682553 C43.91,19.3582553 42.35,25.4282553 38,29.1982553 C47.62,32.9182553 53.97,42.1782553 53.98,52.4982553 C53.98,53.8782553 52.86,54.9982553 51.48,54.9982553 C50.1,54.9982553 48.99,53.8782553 48.99,52.4982553 C48.97,41.7682553 40.49,32.9582553 29.76,32.5282553 C29.5,32.5482553 29.25,32.5682553 28.99,32.5682553 C28.73,32.5682553 28.49,32.5482553 28.22,32.5282553 C17.49,32.9482553 9.01,41.7682553 9,52.4982553 C9,53.8782553 7.88,54.9982553 6.5,54.9982553 C5.12,54.9982553 4,53.8782553 4,52.4982553 C4.01,42.1782553 10.36,32.9182553 19.99,29.1982553 C15.63,25.4282553 14.08,19.3582553 16.08,13.9682553 C18.09,8.57825534 23.24,4.99825534 28.99,4.99825534 Z M28.7370115,10.0104457 C23.9870115,10.1504457 20.2170115,14.0404457 20.2170115,18.7904457 C20.2270115,23.3304457 23.6970115,27.1204457 28.2270115,27.5304457 C28.4770115,27.5204457 28.7370115,27.5104457 28.9870115,27.5104457 L29.7570115,27.5304457 L29.7570115,27.5304457 C34.4870115,27.1104457 38.0270115,23.0104457 37.7470115,18.2704457 C37.4770115,13.5304457 33.4770115,9.87044574 28.7370115,10.0104457 Z" id="分组-1" fill="#0B6DFF" mask="url(#mask-2)"></path>
            </g>
        </g>
    </g>
</svg>