<?xml version="1.0" encoding="UTF-8"?>
<svg width="52px" height="52px" viewBox="0 0 52 52" version="1.1" xmlns="http://www.w3.org/2000/svg" xmlns:xlink="http://www.w3.org/1999/xlink">
    <title>3.1订单</title>
    <defs>
        <rect id="path-1" x="0" y="0" width="52" height="52"></rect>
    </defs>
    <g id="页面-1" stroke="none" stroke-width="1" fill="none" fill-rule="evenodd">
        <g id="个人中心" transform="translate(-61.000000, -482.000000)">
            <g id="3.1订单" transform="translate(61.000000, 482.000000)">
                <mask id="mask-2" fill="white">
                    <use xlink:href="#path-1"></use>
                </mask>
                <g id="路径"></g>
                <g id="编组" mask="url(#mask-2)" fill="#0B6DFF">
                    <g transform="translate(5.000000, 2.000000)">
                        <path d="M10.3606106,12.5263076 C10.3806106,12.4763076 10.4006106,12.3963076 10.4006106,12.2863076 C10.4006106,11.4263076 9.70061057,10.7263076 8.83061057,10.7263076 C7.97061057,10.7263076 7.27061057,11.4263076 7.27061057,12.2863076 L7.27061057,35.7363076 C7.27061057,39.0463076 10.2506106,42.0663076 13.5306106,42.0663076 L29.6306106,42.0463076 L30.0806106,42.0163076 L30.0806106,41.8963076 C30.6406106,41.6663076 31.0106106,41.1263076 31.0106106,40.5063076 C31.0106106,39.8763076 30.6406106,39.3363076 30.0806106,39.0963076 L30.0806106,38.9463076 L12.8306106,38.9463076 C11.6406106,38.9463076 10.3606106,37.0663076 10.3606106,35.7363076 L10.3606106,12.5263076 Z" id="路径"></path>
                        <path d="M6.26,47.9446959 L28.08,47.9446959 C31.07,47.9446959 32.87,46.7046959 33.54,44.2546959 C33.66,44.0246959 33.72,43.8046959 33.72,43.5846959 C33.72,42.7746959 33.07,42.1246959 32.27,42.1246959 C31.68,42.1246959 31.17,42.4946959 30.96,43.0346959 L30.89,43.1746959 C29.89,45.2146959 29.16,44.9146959 28.41,44.8546959 C28.21,44.8446959 28.01,44.8246959 27.8,44.8246959 L6.26,44.8246959 C4.99,44.8246959 3.1,42.9046959 3.1,41.6246959 L3.1,13.5046959 C3.1,12.3346959 4.62,10.6146959 5.86,10.3946959 L6.23,10.2946959 L6.23,10.2846959 C6.85,10.0846959 7.3,9.49469588 7.3,8.81469588 C7.3,8.14469588 6.87,7.56469588 6.26,7.35469588 L6.29,7.14469588 L5.78,7.24469588 L5.73,7.24469588 C5.63,7.24469588 5.54,7.26469588 5.49,7.28469588 C2.46,7.59469588 0,10.3846959 0,13.5046959 L0,41.6246959 C0,44.9246959 2.99,47.9446959 6.26,47.9446959 Z" id="路径"></path>
                        <path d="M30.985715,22.9733855 C32.035715,22.9733855 32.885715,22.1533855 32.885715,21.1433855 C32.885715,20.1333855 32.035715,19.3133855 30.985715,19.3133855 L17.895715,19.3133855 C16.845715,19.3133855 15.995715,20.1333855 15.995715,21.1433855 C15.995715,22.1533855 16.845715,22.9733855 17.895715,22.9733855 L30.985715,22.9733855 Z" id="路径"></path>
                        <path d="M13.534827,0 L30.984827,0.05 L31.184827,0.05 L31.324827,0.2 L41.604827,12.08 L41.604827,35.74 C41.604827,38.86 38.864827,41.79 35.734827,42.02 C35.714827,42.03 35.644827,42.05 35.544827,42.05 L35.544827,42.05 L35.134827,42.04 L35.124827,41.98 C34.474827,41.79 33.994827,41.19 33.994827,40.5 C33.994827,39.84 34.424827,39.26 35.034827,39.05 L35.034827,39.05 L35.034827,38.95 L35.484827,38.95 C36.304827,38.95 37.094827,38.62 37.644827,38.06 C38.214827,37.48 38.524827,36.68 38.514827,35.74 L38.514827,35.74 L38.514827,14.88 L33.894827,14.88 C30.564827,14.88 28.334827,12.64 28.334827,9.31 L28.334827,9.31 L28.324827,3.12 L12.834827,3.12 C11.804827,3.12 10.764827,4.47 10.464827,5.69 L10.464827,5.69 L10.454827,5.73 C10.364827,6.51 9.69482697,7.13 8.89482697,7.13 C8.20482697,7.13 7.60482697,6.67 7.40482697,6.03 L7.40482697,6.03 L7.33482697,6.03 L7.33482697,5.59 C7.33482697,5.46 7.35482697,5.39 7.36482697,5.34 C7.72482697,2.35 10.434827,0 13.534827,0 L13.534827,0 Z M31.4290712,4.66543682 L31.4290712,7.83543682 C31.4290712,9.22543682 32.6990712,11.7954368 33.8890712,11.7954368 L37.3090712,11.7954368 L31.4290712,4.66543682 Z" id="分组-1"></path>
                        <path d="M30.985715,29.9003091 C32.035715,29.9003091 32.885715,29.0803091 32.885715,28.0703091 C32.885715,27.0603091 32.035715,26.2403091 30.985715,26.2403091 L17.895715,26.2403091 C16.845715,26.2403091 15.995715,27.0603091 15.995715,28.0703091 C15.995715,29.0803091 16.845715,29.9003091 17.895715,29.9003091 L30.985715,29.9003091 Z" id="路径"></path>
                    </g>
                </g>
            </g>
        </g>
    </g>
</svg>