<?xml version="1.0" encoding="UTF-8"?>
<svg width="40px" height="40px" viewBox="0 0 40 40" version="1.1" xmlns="http://www.w3.org/2000/svg" xmlns:xlink="http://www.w3.org/1999/xlink">
    <title>箭头 右</title>
    <defs>
        <rect id="path-1" x="0" y="0" width="40" height="40"></rect>
    </defs>
    <g id="页面-1" stroke="none" stroke-width="1" fill="none" fill-rule="evenodd">
        <g id="首页-登录后" transform="translate(-621.000000, -741.000000)">
            <g id="箭头-右" transform="translate(621.000000, 741.000000)">
                <mask id="mask-2" fill="white">
                    <use xlink:href="#path-1"></use>
                </mask>
                <g id="路径"></g>
                <path d="M13.7785783,38.4441338 L27.9985783,25.5541338 C29.3285783,24.2241338 29.9985783,22.6641338 29.9985783,20.8841338 C29.9985783,19.1141338 29.1085783,17.3341338 27.7785783,16.2241338 L13.5585783,4.00413382 C12.6685783,3.11413382 11.3285783,3.33413382 10.4485783,4.22413382 C9.55857828,5.11413382 9.77857828,6.44413382 10.6685783,7.33413382 L25.1085783,19.5541338 C25.5585783,20.0041338 25.7785783,20.4441338 25.7785783,20.8841338 C25.7785783,21.3341338 25.5585783,21.7741338 25.1085783,22.2241338 L10.8885783,35.1141338 C9.99857828,36.0041338 9.77857828,37.3341338 10.6685783,38.2241338 C11.1085783,38.6641338 11.5585783,38.8841338 12.2185783,38.8841338 C12.6685783,38.8841338 13.3285783,38.6641338 13.7785783,38.4441338 Z" id="路径" fill="#0B6DFF" mask="url(#mask-2)"></path>
            </g>
        </g>
    </g>
</svg>