<?xml version="1.0" encoding="UTF-8"?>
<svg width="60px" height="61px" viewBox="0 0 60 61" version="1.1" xmlns="http://www.w3.org/2000/svg" xmlns:xlink="http://www.w3.org/1999/xlink">
    <title>邮箱</title>
    <defs>
        <rect id="path-1" x="0" y="0" width="60" height="60"></rect>
    </defs>
    <g id="页面-1" stroke="none" stroke-width="1" fill="none" fill-rule="evenodd">
        <g id="联系我们" transform="translate(-60.000000, -210.000000)">
            <g id="邮箱" transform="translate(60.000000, 210.500000)">
                <mask id="mask-2" fill="white">
                    <use xlink:href="#path-1"></use>
                </mask>
                <g id="路径"></g>
                <path d="M51.18,0 C56.04,0 60,3.96 60,8.82 L60,8.82 L60,51.18 C60,56.04 56.04,60 51.18,60 L51.18,60 L8.82,60 C3.96,60 0,56.04 0,51.18 L0,51.18 L0,8.82 C0,3.96 3.96,0 8.82,0 L8.82,0 Z M43.14,17.13 L16.83,17.13 C14.4,17.13 12.45,19.08 12.45,21.51 L12.45,38.49 C12.45,40.92 14.4,42.87 16.83,42.87 L43.17,42.87 C45.57,42.87 47.55,40.92 47.55,38.49 L47.52,38.49 L47.52,21.51 C47.52,19.08 45.57,17.13 43.14,17.13 Z" id="分组-1" fill="#0B6DFF" mask="url(#mask-2)"></path>
                <path d="M29.3727067,34.9527067 C29.5527067,35.0727067 29.7927067,35.1327067 30.0027067,35.1327067 C30.2127067,35.1327067 30.4527067,35.0727067 30.6327067,34.9527067 L42.9927067,27.0027067 C43.5227067,26.6427067 43.6827067,25.9327067 43.3527067,25.3827067 C42.9927067,24.8427067 42.2827067,24.6827067 41.7327067,25.0227067 L30.0027067,32.5827067 L18.2727067,25.0227067 C17.7327067,24.6627067 17.0127067,24.8427067 16.6527067,25.3827067 C16.2927067,25.9227067 16.4727067,26.6427067 17.0127067,27.0027067 L29.3727067,34.9527067 Z" id="路径" fill="#0B6DFF" mask="url(#mask-2)"></path>
            </g>
        </g>
    </g>
</svg>