<?xml version="1.0" encoding="UTF-8"?>
<svg width="74px" height="74px" viewBox="0 0 74 74" version="1.1" xmlns="http://www.w3.org/2000/svg" xmlns:xlink="http://www.w3.org/1999/xlink">
    <title>钱袋</title>
    <defs>
        <rect id="path-1" x="0" y="0" width="74" height="74"></rect>
    </defs>
    <g id="页面-1" stroke="none" stroke-width="1" fill="none" fill-rule="evenodd">
        <g id="首页-登录后" transform="translate(-71.000000, -276.000000)">
            <g id="钱袋" transform="translate(71.000000, 276.000000)">
                <mask id="mask-2" fill="white">
                    <use xlink:href="#path-1"></use>
                </mask>
                <g id="路径"></g>
                <path d="M37.0219861,9.19374702 C44.1353194,8.54041368 48.7353194,9.85708035 50.8219861,13.143747 C52.9086527,16.4304137 52.2519861,19.723747 48.8519861,23.023747 C58.0453194,27.5104137 62.6419861,34.753747 62.6419861,44.753747 C62.6419861,59.743747 50.3219861,64.503747 37.0219861,64.503747 C23.7119861,64.503747 11.3919861,59.743747 11.3919861,44.753747 C11.3919861,34.753747 15.9919861,27.5104137 25.1919861,23.023747 C21.7919861,19.723747 21.1353194,16.4304137 23.2219861,13.143747 C25.3086527,9.85708035 29.9086527,8.54041368 37.0219861,9.19374702 Z M25.2425318,14.6419458 C24.3025318,17.3419458 25.6891984,20.5719458 29.4025318,24.3319458 C19.2425318,28.4186125 14.1625318,34.9586125 14.1625318,43.9519458 C14.1625318,57.4519458 25.1525318,61.7319458 37.0225318,61.7319458 C48.8825318,61.7319458 59.8725318,57.4519458 59.8725318,43.9519458 C59.8725318,34.9586125 54.7958651,28.4186125 44.6425318,24.3319458 C48.2558651,20.8252791 49.6391984,17.5952791 48.7925318,14.6419458 C47.3535021,10.904466 37.8853044,11.7408158 37.0342416,11.921581 C37.1031813,11.9416847 37.1216898,11.9514708 37.0227651,11.9514708 C36.9127651,11.9514708 36.9427651,11.9414708 37.0327651,11.9214708 L37.0299861,11.920747 L36.9851489,11.9117014 C35.9761255,11.7134063 27.3344961,10.9687315 25.2425318,14.6419458 Z M45.2179861,33.279747 L45.2179861,35.615747 L40.1619861,35.615747 L40.3882361,35.807122 C42.0419861,37.267747 42.0419861,37.267747 42.4019861,39.487747 L42.4019861,39.487747 L45.2179861,39.487747 L45.2179861,41.791747 L42.3699861,41.791747 L42.3107464,42.1084412 C41.9801679,43.6753834 41.9801679,43.6753834 40.9619861,44.911747 C39.8419861,46.271747 39.8419861,46.271747 38.0979861,47.023747 C36.3539861,47.775747 36.3539861,47.775747 34.2419861,47.775747 L34.2419861,47.775747 L34.0499861,47.775747 L43.7459861,56.703747 L39.7459861,56.703747 L29.3139861,47.199747 L29.3139861,45.439747 L33.8579861,45.439747 L34.1735779,45.4346042 C36.1962718,45.367747 36.1962718,45.367747 37.4739861,44.431747 C38.8499861,43.423747 38.8499861,43.423747 39.2339861,41.791747 L39.2339861,41.791747 L29.3139861,41.791747 L29.3139861,39.487747 L39.2979861,39.487747 L39.2376784,39.2257825 C38.8389092,37.6772855 38.8389092,37.6772855 37.5539861,36.687747 C36.1619861,35.615747 36.1619861,35.615747 33.8579861,35.615747 L33.8579861,35.615747 L29.3139861,35.615747 L29.3139861,33.279747 L45.2179861,33.279747 Z" id="分组-1" fill="#FFFFFF" mask="url(#mask-2)"></path>
            </g>
        </g>
    </g>
</svg>