<?xml version="1.0" encoding="UTF-8"?>
<svg width="86px" height="80px" viewBox="0 0 86 80" version="1.1" xmlns="http://www.w3.org/2000/svg" xmlns:xlink="http://www.w3.org/1999/xlink">
    <title>miaosha</title>
    <defs>
        <rect id="path-1" x="0" y="0" width="85.3333333" height="80"></rect>
    </defs>
    <g id="页面-1" stroke="none" stroke-width="1" fill="none" fill-rule="evenodd">
        <g id="首页-登录后" transform="translate(-60.000000, -1035.000000)">
            <g id="miaosha" transform="translate(60.000000, 1035.000000)">
                <mask id="mask-2" fill="white">
                    <use xlink:href="#path-1"></use>
                </mask>
                <g id="路径"></g>
                <path d="M20.9093843,68.7934979 C26.8193843,74.2934979 34.5993843,77.3434979 42.6793843,77.3334979 C51.0893843,77.3334979 58.7293843,74.0934979 64.4493843,68.7934979 L67.2493843,74.3834979 C68.0693843,76.1334979 69.7793843,77.2934979 71.7093843,77.4334979 C73.6393843,77.5634979 75.4893843,76.6334979 76.5493843,75.0134979 C77.5993843,73.3934979 77.6893843,71.3234979 76.7893843,69.6134979 L71.5593843,59.1534979 C73.6193843,54.8334979 74.6893843,50.1134979 74.6893843,45.3334979 C74.6893843,27.6634979 60.3493843,13.3334979 42.6793843,13.3334979 C24.9993843,13.3334979 10.6693843,27.6634979 10.6693843,45.3334979 C10.6693843,50.2834979 11.7893843,54.9634979 13.7993843,59.1534979 L8.56938428,69.6134979 C7.27938428,72.2434979 8.34938428,75.4234979 10.9693843,76.7334979 C13.5893843,78.0434979 16.7793843,76.9934979 18.1093843,74.3834979 L20.9093843,68.7934979 Z" id="路径" fill="#0B6DFF" mask="url(#mask-2)"></path>
                <path d="M42.9441478,29.863412 L30.9441478,45.863412 C30.6341478,46.273412 30.5841478,46.813412 30.8141478,47.263412 C31.0441478,47.713412 31.5041478,48.003412 32.0041478,48.003412 L37.3441478,48.003412 C38.8141478,48.003412 40.0141478,49.193412 40.0141478,50.663412 L40.0141478,62.663412 C40.0141478,63.243412 40.3741478,63.753412 40.9241478,63.933412 C41.4641478,64.113412 42.0641478,63.923412 42.4141478,63.463412 L54.4141478,47.463412 C54.7141478,47.063412 54.7641478,46.523412 54.5441478,46.073412 C54.3141478,45.623412 53.8541478,45.333412 53.3441478,45.333412 L48.0141478,45.333412 C46.5341478,45.333412 45.3441478,44.143412 45.3441478,42.663412 L45.3441478,30.663412 C45.3441478,30.093412 44.9741478,29.583412 44.4341478,29.403412 C43.8841478,29.223412 43.2841478,29.403412 42.9441478,29.863412 Z" id="路径" fill="#FFFFFF" mask="url(#mask-2)"></path>
                <g id="分组-1" mask="url(#mask-2)" fill="#FFAA44">
                    <g transform="translate(1.946786, 2.274359)" id="路径">
                        <path d="M29.69,0.522666735 C28.42,-0.0873332654 26.95,-0.167333265 25.62,0.302666735 C14.87,4.11266673 5.95,11.8226667 0.62,21.9026667 C-0.76,24.5026667 0.24,27.7326667 2.84,29.1026667 C5.44,30.4826667 8.67,29.4926667 10.05,26.8826667 C14.13,19.1826667 20.95,13.2826667 29.17,10.3626667 C30.5,9.89266673 31.6,8.91266673 32.21,7.63266673 C32.82,6.36266673 32.9,4.89266673 32.42,3.56266673 C31.95,2.22266673 30.97,1.13266673 29.69,0.522666735 Z"></path>
                        <path d="M49.2517806,7.63 C49.8617806,8.91 50.9517806,9.89 52.2917806,10.36 C60.5117806,13.28 67.3317806,19.18 71.4117806,26.89 C72.7917806,29.49 76.0117806,30.48 78.6217806,29.11 C81.2217806,27.73 82.2217806,24.5 80.8417806,21.9 C75.5117806,11.82 66.5917806,4.12 55.8417806,0.3 C54.5117806,-0.17 53.0417806,-0.09 51.7617806,0.52 C50.4917806,1.13 49.5117806,2.22 49.0317806,3.56 C48.5617806,4.89 48.6417806,6.36 49.2517806,7.63 Z"></path>
                    </g>
                </g>
            </g>
        </g>
    </g>
</svg>