<?xml version="1.0" encoding="UTF-8"?>
<svg width="58px" height="58px" viewBox="0 0 58 58" version="1.1" xmlns="http://www.w3.org/2000/svg" xmlns:xlink="http://www.w3.org/1999/xlink">
    <title>表单</title>
    <defs>
        <rect id="path-1" x="0" y="0" width="58" height="58"></rect>
    </defs>
    <g id="页面-1" stroke="none" stroke-width="1" fill="none" fill-rule="evenodd">
        <g id="产品列表" transform="translate(-421.000000, -1186.000000)">
            <g id="表单" transform="translate(421.000000, 1186.000000)">
                <mask id="mask-2" fill="white">
                    <use xlink:href="#path-1"></use>
                </mask>
                <g id="路径"></g>
                <g id="分组-1" mask="url(#mask-2)" fill="#0B6DFF">
                    <g transform="translate(16.856250, 20.934375)" id="路径">
                        <path d="M23.38,2 C23.38,0.86 22.84,0 22.11,0 L2.45,0 C1.66,-0.19 0.84,0.08 0.3,0.68 C0.11,1.03 0,1.48 0,2 C0,3.14 0.54,4 1.27,4 L20.93,4 C21.72,4.19 22.54,3.92 23.08,3.32 C23.27,2.97 23.38,2.52 23.38,2 Z"></path>
                        <path d="M23.38,10.15625 C23.38,9.01625 22.84,8.15625 22.11,8.15625 L2.45,8.15625 C1.66,7.96625 0.84,8.23625 0.3,8.83625 C0.11,9.18625 0,9.63625 0,10.15625 C0,11.29625 0.54,12.15625 1.27,12.15625 L20.93,12.15625 C21.72,12.34625 22.54,12.07625 23.08,11.47625 C23.27,11.12625 23.38,10.67625 23.38,10.15625 Z"></path>
                        <path d="M23.38,17.40625 C23.38,16.26625 22.84,15.40625 22.11,15.40625 L2.45,15.40625 C1.66,15.21625 0.84,15.48625 0.3,16.08625 C0.11,16.43625 0,16.88625 0,17.40625 C0,18.54625 0.54,19.40625 1.27,19.40625 L20.93,19.40625 C21.72,19.59625 22.54,19.32625 23.08,18.72625 C23.27,18.37625 23.38,17.92625 23.38,17.40625 Z"></path>
                    </g>
                </g>
                <path d="M46,54 C52.62,54 58,48.62 58,42 C58,35.38 52.62,30 46,30 C39.38,30 34,35.38 34,42 C34,48.62 39.38,54 46,54 Z" id="路径" fill="#0B6DFF" opacity="0.2" mask="url(#mask-2)"></path>
                <path d="M45.51,17.04 L45.51,43.96 C45.51,47.42 42.83,50.31 39.63,50.31 L17.37,50.31 C14.16,50.31 11.49,47.42 11.49,43.96 L11.49,17.04 C11.49,13.58 14.16,10.69 17.37,10.69 C18.08,10.69 18.62,10.12 18.62,9.35 C18.62,8.58 18.08,8 17.37,8 C12.74,8 9,12.04 9,17.04 L9,43.96 C9,48.96 12.74,53 17.37,53 L39.63,53 C44.26,53 48.09,48.96 48,43.96 L48,17.04 C48,12.04 44.26,8 39.63,8 C38.92,8 38.38,8.58 38.38,9.35 C38.38,10.12 38.92,10.69 39.63,10.69 C42.83,10.69 45.51,13.58 45.51,17.04 Z" id="路径" stroke="#0D7FF6" stroke-width="2" fill="#0B6DFF" stroke-dasharray="0,0" mask="url(#mask-2)"></path>
                <path d="M34.4378125,4.89375 C35.7078125,4.89375 36.7878125,5.98375 36.7878125,7.25375 L36.7878125,7.25375 L36.7878125,11.42375 C36.7878125,12.68375 35.7078125,13.77375 34.4378125,13.77375 L34.4378125,13.77375 L22.5678125,13.77375 C21.2978125,13.77375 20.2078125,12.68375 20.2078125,11.42375 L20.2078125,11.42375 L20.2078125,7.25375 C20.2078125,5.98375 21.2978125,4.89375 22.5678125,4.89375 L22.5678125,4.89375 Z M34,7.834375 L23,7.834375 L23,10.834375 L34,10.834375 L34,7.834375 Z" id="分组-2" fill="#0B6DFF" mask="url(#mask-2)"></path>
            </g>
        </g>
    </g>
</svg>