<?xml version="1.0" encoding="UTF-8"?>
<svg width="58px" height="58px" viewBox="0 0 58 58" version="1.1" xmlns="http://www.w3.org/2000/svg" xmlns:xlink="http://www.w3.org/1999/xlink">
    <title>dingqihuankuan</title>
    <defs>
        <rect id="path-1" x="0" y="0" width="58" height="58"></rect>
    </defs>
    <g id="页面-1" stroke="none" stroke-width="1" fill="none" fill-rule="evenodd">
        <g id="产品列表" transform="translate(-241.000000, -1186.000000)">
            <g id="dingqihuankuan" transform="translate(241.000000, 1186.000000)">
                <mask id="mask-2" fill="white">
                    <use xlink:href="#path-1"></use>
                </mask>
                <g id="路径"></g>
                <path d="M46,54 C52.62,54 58,48.62 58,42 C58,35.38 52.62,30 46,30 C39.38,30 34,35.38 34,42 C34,48.62 39.38,54 46,54 Z" id="路径" fill="#CCCCCC" opacity="0.2" mask="url(#mask-2)"></path>
                <path d="M4.77706626,6.28706628 C7.50706626,3.66706628 11.8470663,3.76706628 14.4670663,6.49706628 C14.5770663,6.61706628 14.6670663,6.72706628 14.7670663,6.84706628 L14.7670663,6.84706628 L4.89706626,16.2870663 C4.78706626,16.1870663 4.67706626,16.0870663 4.56706626,15.9770663 C1.94706626,13.2470663 2.04706626,8.90706628 4.77706626,6.28706628 Z M43.53,6.49706628 C46.15,3.76706628 50.49,3.66706628 53.22,6.28706628 C55.95,8.90706628 56.05,13.2470663 53.43,15.9770663 C53.32,16.0870663 53.21,16.1870663 53.1,16.2870663 L53.1,16.2870663 L43.23,6.84706628 C43.33,6.72706628 43.42,6.61706628 43.53,6.49706628 Z" id="分组-1" fill="#CCCCCC" mask="url(#mask-2)"></path>
                <path d="M29,5.60999999 C42.23,5.60999999 53,16.38 53,29.61 C53,34.86 51.3,39.72 48.43,43.67 L48.43,43.67 L54.35,48.84 L51.06,52.61 L45.1,47.4 C40.84,51.26 35.19,53.62 29,53.62 C22.81,53.62 17.16,51.26 12.9,47.4 L12.9,47.4 L6.93999998,52.61 L3.64999998,48.84 L9.56999998,43.67 C6.69999998,39.71 4.99999998,34.86 4.99999998,29.61 C4.99999998,16.38 15.77,5.60999999 29,5.60999999 Z M29,10.61 C18.52,10.61 9.99999999,19.13 9.99999999,29.61 C9.99999999,40.09 18.52,48.61 29,48.61 C39.48,48.61 48,40.09 48,29.61 C48,19.13 39.48,10.61 29,10.61 Z" id="分组-2" fill="#CCCCCC" mask="url(#mask-2)"></path>
                <path d="M37.61,26.08 L32.26,26.08 L37.07,21.27 L33.91,18.11 L28.98,23.04 L24.05,18.11 L20.89,21.27 L25.7,26.08 L20.42,26.08 L20.42,30.38 L26.83,30.38 L26.83,32.52 L20.39,32.52 L20.39,36.82 L26.83,36.82 L26.83,41.12 L31.13,41.12 L31.13,36.82 L37.57,36.82 L37.57,32.52 L31.13,32.52 L31.13,30.38 L37.61,30.38 L37.61,26.08 Z" id="路径" fill="#CCCCCC" mask="url(#mask-2)"></path>
            </g>
        </g>
    </g>
</svg>