<?xml version="1.0" encoding="UTF-8"?>
<svg width="200px" height="200px" viewBox="0 0 200 200" version="1.1" xmlns="http://www.w3.org/2000/svg" xmlns:xlink="http://www.w3.org/1999/xlink">
    <title>无贷款记录</title>
    <defs>
        <rect id="path-1" x="0" y="0" width="200" height="200"></rect>
    </defs>
    <g id="页面-1" stroke="none" stroke-width="1" fill="none" fill-rule="evenodd">
        <g id="无贷款信息" transform="translate(-260.000000, -380.000000)">
            <g id="无贷款记录" transform="translate(260.000000, 380.000000)">
                <mask id="mask-2" fill="white">
                    <use xlink:href="#path-1"></use>
                </mask>
                <g id="路径"></g>
                <path d="M151.5,103 C178,103 200,124.5 200,151.5 C200,178 178.5,200 151.5,200 C124.5,200 103,178.5 103,151.5 C103,124.5 124.5,103 151.5,103 Z M143,5 C148.5,5 153,9.5 153,15 L153,15 L153,22 L172.5,22 C178,22 182.5,26.5 182.5,32 L182.5,32 L182.5,88 C182.5,92.5 179,96 174.5,96 C170,96 166.5,92.5 166.5,88 L166.5,88 L166.5,38 L153,38 L153,41.5 C153,47 148.5,51.5 143,51.5 L143,51.5 L49,51.5 C43.5,51.5 39,47 39,41.5 L39,41.5 L39,38 L25.5,38 L26,172.5 L90.5,172.5 C94.5,172.5 98,176 98,180 C98,184 94.5,187.5 90.5,187.5 L90.5,187.5 L20,187.5 C14.5,187.5 10,183 10,177.5 L10,177.5 L10,32 C10,26.5 14.5,22 20,22 L20,22 L39,22 L39,15 C39,9.5 43.5,5 49,5 L49,5 Z M130.997127,116.99523 C128.497127,118.99523 127.997127,120.99523 128.997127,123.49523 L142.497127,143.99523 L131.497127,143.99523 C129.997127,144.99523 128.997127,145.99523 129.497127,147.49523 C129.497127,148.99523 130.497127,149.99523 131.497127,150.99523 L145.997127,150.99523 L145.997127,156.99523 L131.497127,156.99523 C129.997127,157.99523 129.497127,158.99523 129.497127,160.49523 C129.497127,161.99523 129.997127,163.49523 131.497127,163.99523 L145.997127,163.99523 L145.997127,178.99523 C145.997127,183.49523 147.997127,185.49523 151.497127,185.49523 C154.997127,185.49523 156.997127,182.99523 156.997127,178.99523 L156.997127,163.99523 L171.497127,163.99523 C172.497127,162.99523 172.997127,161.99523 172.997127,160.49523 C172.997127,158.99523 172.497127,157.99523 171.497127,156.99523 L156.997127,156.99523 L156.997127,150.99523 L171.497127,150.99523 C172.497127,149.99523 172.997127,148.99523 172.997127,147.49523 C172.997127,145.99523 172.497127,144.99523 171.497127,143.99523 L159.997127,143.99523 L173.497127,123.49523 C174.497127,120.49523 173.997127,117.99523 170.997127,116.99523 C167.997127,115.99523 165.997127,116.49523 164.497127,118.99523 L150.997127,139.99523 L137.497127,118.99523 C135.497127,116.49523 133.497127,115.49523 130.997127,116.99523 Z M83,131.5 C86.5,131.5 89,134 89,137.5 C89,141 86.5,143.5 83,143.5 L83,143.5 L51.5,143.5 C48,143.5 45.5,141 45.5,137.5 C45.5,134 48,131.5 51.5,131.5 L51.5,131.5 Z M100,103.5 C103.5,103.5 106,106 106,109.5 C106,113 103.5,115.5 100,115.5 L100,115.5 L51.5,115.5 C48,115.5 45.5,113 45.5,109.5 C45.5,106 48,103.5 51.5,103.5 L51.5,103.5 Z M141.5,73.5 C145,73.5 147.5,76 147.5,79.5 C147.5,83 145,85.5 141.5,85.5 L141.5,85.5 L51.5,85.5 C48,85.5 45.5,83 45.5,79.5 C45.5,76 48,73.5 51.5,73.5 L51.5,73.5 Z M141,17.5 L51.5,17.5 L51.5,39.5 L141,39.5 L141,17.5 Z" id="分组-1" fill="#0B6DFF" mask="url(#mask-2)"></path>
                <path d="M148.020642,200.706653 L155.020642,200.706653 L155.020642,101.706653 L148.020642,101.706653 L148.020642,200.706653 Z" id="路径" fill="#FFFFFF" mask="url(#mask-2)" transform="translate(151.520642, 151.206653) rotate(-45.000000) translate(-151.520642, -151.206653) "></path>
            </g>
        </g>
    </g>
</svg>